<svg width="56" height="56" viewBox="0 0 56 56" fill="none" xmlns="http://www.w3.org/2000/svg">
<path d="M0.100182 51.4435L0.00976562 51.4071V48.4612L0.100182 48.4219V51.4435Z" fill="#026543"/>
<path fill-rule="evenodd" clip-rule="evenodd" d="M26.7562 21.4826C27.1362 21.4821 27.5163 21.4815 27.8963 21.4815H27.8978C28.2845 21.4815 28.6713 21.4823 29.058 21.4831C29.9604 21.4849 30.8629 21.4868 31.7653 21.4786C32.7147 21.4698 33.2149 20.9798 33.2309 20.0363C33.247 19.0023 33.244 17.9669 33.2309 16.9315C33.2193 15.9399 32.7482 15.4557 31.7536 15.4499C29.2118 15.4367 26.6684 15.4353 24.1265 15.4499C23.1363 15.4557 22.6711 15.9457 22.6595 16.9417C22.6493 17.9407 22.6507 18.9396 22.6595 19.9386C22.6682 20.9901 23.1509 21.4742 24.1922 21.4801C25.0463 21.4851 25.9011 21.4839 26.7562 21.4826ZM28.8518 17.0845C28.5498 17.0832 28.2479 17.0819 27.9459 17.0819C27.674 17.0819 27.402 17.0822 27.1299 17.0825C26.3135 17.0833 25.4967 17.0841 24.6807 17.0776C24.4226 17.0746 24.2768 17.1184 24.2855 17.429C24.3045 18.1188 24.303 18.8086 24.2855 19.4969C24.2768 19.8061 24.4212 19.8484 24.6807 19.8484C26.858 19.8411 29.0339 19.8382 31.2112 19.8513C31.5291 19.8528 31.6151 19.7434 31.6064 19.443C31.5889 18.8086 31.583 18.1728 31.6078 17.5384C31.621 17.1884 31.5262 17.0644 31.1557 17.0732C30.3883 17.091 29.6201 17.0877 28.8518 17.0845Z" fill="#003923"/>
<path fill-rule="evenodd" clip-rule="evenodd" d="M39.1038 45.0432C39.4838 45.0426 39.8639 45.0421 40.244 45.0421H40.2455C40.6322 45.0421 41.0189 45.0428 41.4057 45.0436C42.3081 45.0455 43.2105 45.0473 44.113 45.0391C45.0623 45.0304 45.5625 44.5404 45.5786 43.5969C45.5946 42.5629 45.5917 41.5275 45.5786 40.4921C45.5669 39.5004 45.0959 39.0162 44.1013 39.0104C41.5594 38.9973 39.0161 38.9958 36.4742 39.0104C35.484 39.0162 35.0188 39.5062 35.0071 40.5023C34.9969 41.5012 34.9984 42.5002 35.0071 43.4991C35.0159 44.5506 35.4986 45.0348 36.5398 45.0406C37.394 45.0457 38.2488 45.0444 39.1038 45.0432ZM41.1994 40.645C40.8975 40.6438 40.5956 40.6425 40.2936 40.6425C40.0217 40.6425 39.7496 40.6428 39.4776 40.643C38.6612 40.6438 37.8444 40.6447 37.0284 40.6381C36.7703 40.6352 36.6244 40.6789 36.6332 40.9896C36.6521 41.6794 36.6507 42.3691 36.6332 43.0575C36.6244 43.3666 36.7688 43.4089 37.0284 43.4089C39.2057 43.4016 41.3815 43.3987 43.5588 43.4119C43.8767 43.4133 43.9628 43.3039 43.954 43.0035C43.9365 42.3691 43.9307 41.7333 43.9555 41.0989C43.9686 40.7489 43.8738 40.625 43.5034 40.6337C42.736 40.6515 41.9678 40.6483 41.1994 40.645Z" fill="#003923"/>
<path fill-rule="evenodd" clip-rule="evenodd" d="M15.1038 45.0432C15.4838 45.0426 15.8639 45.0421 16.244 45.0421H16.2455C16.6322 45.0421 17.0189 45.0428 17.4057 45.0436C18.3081 45.0455 19.2105 45.0473 20.113 45.0391C21.0623 45.0304 21.5625 44.5404 21.5786 43.5969C21.5946 42.5629 21.5917 41.5275 21.5786 40.4921C21.5669 39.5004 21.0959 39.0162 20.1013 39.0104C17.5594 38.9973 15.0161 38.9958 12.4742 39.0104C11.484 39.0162 11.0188 39.5062 11.0071 40.5023C10.9969 41.5012 10.9984 42.5002 11.0071 43.4991C11.0159 44.5506 11.4986 45.0348 12.5398 45.0406C13.394 45.0457 14.2488 45.0444 15.1038 45.0432ZM17.1994 40.645C16.8975 40.6438 16.5956 40.6425 16.2936 40.6425C16.0217 40.6425 15.7496 40.6428 15.4776 40.643C14.6612 40.6438 13.8444 40.6447 13.0284 40.6381C12.7703 40.6352 12.6244 40.6789 12.6332 40.9896C12.6521 41.6794 12.6507 42.3691 12.6332 43.0575C12.6244 43.3666 12.7688 43.4089 13.0284 43.4089C15.2057 43.4016 17.3815 43.3987 19.5588 43.4119C19.8767 43.4133 19.9628 43.3039 19.954 43.0035C19.9365 42.3691 19.9307 41.7333 19.9555 41.0989C19.9686 40.7489 19.8738 40.625 19.5034 40.6337C18.736 40.6515 17.9678 40.6483 17.1994 40.645Z" fill="#003923"/>
<path fill-rule="evenodd" clip-rule="evenodd" d="M1.2509 47.5341C0.673402 47.5604 0.247569 47.8185 0.101736 48.4208L0.0988191 48.415C0.0514253 49.0183 0.0581446 49.6223 0.0648664 50.2264C0.0688999 50.5889 0.0729342 50.9515 0.0652774 51.3141C0.00694405 51.8873 0.336527 52.1877 0.816319 52.3729C1.19549 52.5187 1.59361 52.5391 1.99611 52.5391L2.13004 52.5384C2.58538 52.5357 2.80811 52.5344 2.9167 52.6451C3.02066 52.7511 3.01998 52.9597 3.01865 53.3681C3.01843 53.4353 3.0182 53.5078 3.0184 53.5862C3.01889 53.6772 3.0184 53.7679 3.01792 53.8586C3.01694 54.04 3.01597 54.2211 3.02278 54.4029C3.05924 55.3566 3.37278 55.7533 4.26674 55.9823H7.31903C8.25819 55.7475 8.55715 55.3668 8.58195 54.3708C8.58725 54.1862 8.58638 54.0008 8.58551 53.8158V53.8157V53.8155V53.8154V53.8152V53.8151V53.8149C8.58519 53.7459 8.58486 53.677 8.58486 53.6081C8.58486 52.9062 8.93 52.5552 9.62028 52.5552H46.2667C46.3479 52.5552 46.429 52.5563 46.51 52.5575H46.5104H46.5108H46.5111H46.5115C46.612 52.5589 46.7123 52.5604 46.8122 52.5596C47.1578 52.5566 47.3007 52.7258 47.3007 53.0627C47.3012 53.199 47.3009 53.3353 47.3006 53.4716C47.3001 53.7713 47.2995 54.0711 47.3065 54.3708C47.3313 55.3668 47.6317 55.7475 48.5695 55.9823H51.6247C52.4442 55.6381 52.7972 55.0241 52.7286 54.136C52.7092 53.8865 52.7142 53.635 52.7191 53.3834V53.3834V53.3833V53.3832V53.3832V53.3831V53.3831V53.383V53.3829V53.3828V53.3827V53.3825V53.3824C52.7234 53.1608 52.7278 52.939 52.7155 52.7185C52.698 52.3991 52.8132 52.3146 53.1165 52.3277C53.6065 52.3496 54.0995 52.3496 54.5895 52.3277C55.3988 52.2912 55.8567 51.8173 55.8713 51.0079C55.883 50.2991 55.8801 49.5889 55.8713 48.8802C55.8597 48.0096 55.393 47.5414 54.5165 47.521C53.9711 47.5079 53.4242 47.4948 52.8803 47.5268C52.5274 47.5473 52.4588 47.4189 52.4661 47.0952C52.4851 46.2041 52.4851 45.3131 52.4661 44.4221C52.4545 43.8679 52.1132 43.5339 51.632 43.5412C51.1536 43.5485 50.8459 43.8883 50.8401 44.4512L50.8367 44.7207V44.7207V44.7208V44.7209V44.721V44.7211V44.7211C50.827 45.486 50.8174 46.2517 50.8474 47.015C50.8634 47.4262 50.7424 47.5283 50.334 47.5283C43.3151 47.5166 36.2947 47.5166 29.2757 47.5283C28.8849 47.5283 28.7492 47.4539 28.7492 47.0266C28.7638 39.9902 28.7624 32.9523 28.7507 25.9158C28.7507 25.5323 28.8572 25.4331 29.2363 25.436C31.3815 25.455 33.5282 25.4564 35.6734 25.436C36.0642 25.4331 36.1517 25.5483 36.1474 25.9217C36.128 27.4414 36.1336 28.9625 36.1392 30.4823V30.4829L36.1401 30.7225C36.1459 32.0044 37.1565 32.6679 38.2342 31.9752C39.347 31.2606 40.2745 31.2839 41.377 31.9912C42.4226 32.6621 43.4332 31.9942 43.4376 30.7473L43.4396 30.2133V30.2127V30.2127V30.2126V30.2126V30.2126V30.2125C43.4452 28.7898 43.4509 27.3681 43.4288 25.9464C43.423 25.5454 43.5149 25.4302 43.932 25.4346C46.0597 25.4594 48.1874 25.4608 50.3151 25.4346C50.7599 25.4302 50.8459 25.5658 50.8459 25.9829C50.8346 29.6743 50.8356 33.3665 50.8366 37.0583C50.8369 38.1125 50.8372 39.1666 50.8372 40.2206C50.8372 40.2579 50.8368 40.2953 50.8364 40.3328V40.333C50.835 40.4771 50.8335 40.6222 50.8532 40.7646C50.9115 41.1816 51.1886 41.4121 51.5853 41.4485C51.963 41.4835 52.2445 41.291 52.3976 40.9323C52.4756 40.7495 52.474 40.5588 52.4724 40.3682C52.4722 40.3414 52.472 40.3145 52.472 40.2877C52.472 38.6752 52.4721 37.0629 52.4723 35.4506V35.4505V35.4503V35.4501V35.45V35.4498V35.4497C52.4726 32.2256 52.4729 29.0018 52.472 25.7773C52.472 24.4546 51.8215 23.81 50.4901 23.81C49.8507 23.8097 49.2114 23.809 48.5719 23.8083C46.1206 23.8057 43.6686 23.8032 41.2165 23.8217C40.7324 23.8246 40.5953 23.7167 40.5953 23.2106C40.6131 16.5376 40.6103 9.86455 40.6075 3.19151L40.607 1.935C40.607 0.804791 39.9361 0.119375 38.8263 0.119375C31.5711 0.116458 24.3144 0.116458 17.0592 0.119375C15.9699 0.119375 15.2874 0.801875 15.2815 1.8825C15.2757 3.13667 15.2786 4.39229 15.2815 5.64646C15.283 6.31 15.5528 6.66 16.0647 6.67458C16.6057 6.69062 16.9119 6.3275 16.9149 5.64937C16.9156 5.45541 16.9165 5.26146 16.9175 5.0675V5.06728C16.9221 4.09756 16.9268 3.12784 16.9061 2.15812C16.8988 1.80667 17.0097 1.74542 17.3334 1.74687C19.4976 1.76292 21.6617 1.76437 23.8259 1.74687C24.1963 1.74396 24.3188 1.82708 24.313 2.21937C24.2897 3.81916 24.2969 5.42041 24.3057 7.0202C24.313 8.31958 25.2974 8.96999 26.3867 8.2802C27.4761 7.59041 28.3817 7.55979 29.4828 8.27C30.5911 8.98458 31.5784 8.3225 31.5842 6.98812L31.5851 6.75485V6.75463C31.5907 5.26899 31.5963 3.78217 31.5769 2.29667C31.5726 1.89854 31.6353 1.73812 32.0961 1.74396C34.2238 1.77312 36.3515 1.76875 38.4792 1.74687C38.8847 1.7425 38.9838 1.83729 38.9838 2.24854C38.9692 9.2675 38.9678 16.2864 38.9853 23.3054C38.9867 23.7575 38.838 23.8202 38.4399 23.8202C31.4399 23.8085 24.4384 23.8071 17.4369 23.8217C17.0097 23.8231 16.9047 23.7167 16.9061 23.2908C16.9196 19.8628 16.9184 16.4339 16.9171 13.0054V13.0053V13.0052V13.0051V13.0049V13.0048V13.0047C16.9167 11.9966 16.9163 10.9886 16.9163 9.98062C16.9163 9.93725 16.9174 9.89345 16.9185 9.84954L16.9185 9.84941V9.8494C16.922 9.71028 16.9255 9.56999 16.8944 9.43812C16.7938 9.01958 16.508 8.76145 16.0778 8.7775C15.6301 8.795 15.3399 9.0575 15.2903 9.52708C15.2775 9.64538 15.2795 9.76523 15.2815 9.88494V9.88495V9.88496V9.88497V9.88497V9.88498V9.88499V9.88505V9.88512V9.88518V9.88524C15.2822 9.92924 15.283 9.97321 15.283 10.0171C15.2827 10.7855 15.2823 11.5539 15.2819 12.3224V12.3229C15.2798 15.9731 15.2778 19.6232 15.2947 23.2733C15.2976 23.7458 15.1605 23.8275 14.723 23.8246C12.4045 23.8093 10.0861 23.8112 7.76762 23.8131H7.76685C6.99389 23.8137 6.22094 23.8144 5.44799 23.8144C4.04653 23.8144 3.41653 24.4429 3.41653 25.8414V39.9698C3.41653 40.5557 3.4158 41.1417 3.41507 41.7278V41.7279V41.7281V41.7282V41.7283V41.7285V41.7286C3.41288 43.4878 3.41069 45.2474 3.42819 47.0062C3.43257 47.4437 3.30569 47.5619 2.88715 47.5341C2.34319 47.4991 1.79486 47.5094 1.2509 47.5341ZM5.05395 34.0735C5.05357 34.8669 5.05319 35.6603 5.05319 36.4539H5.05173C5.05173 37.2092 5.05194 37.9647 5.05214 38.7202V38.7203V38.7204V38.7205V38.7206V38.7207V38.7208C5.05287 41.4918 5.05361 44.2634 5.04444 47.0341C5.04298 47.3957 5.11298 47.5328 5.51403 47.5328C12.5694 47.5211 19.6234 47.5211 26.6774 47.5313C27.0332 47.5313 27.1382 47.4409 27.1382 47.0764C27.1265 40.0224 27.1265 32.9684 27.1382 25.9145C27.1382 25.5237 27.0201 25.4362 26.6482 25.4391C24.503 25.458 22.3578 25.4595 20.2126 25.4391C19.8174 25.4347 19.7372 25.5572 19.7415 25.9262C19.7619 27.5434 19.759 29.1622 19.7474 30.7795C19.7401 31.987 18.709 32.6593 17.6999 32.0059C16.5813 31.2826 15.6392 31.2651 14.5119 31.9928C13.4678 32.668 12.4557 31.9972 12.4513 30.7503L12.4491 30.0393C12.4447 28.6765 12.4402 27.3137 12.4601 25.9509C12.4659 25.5528 12.3799 25.4332 11.9599 25.4376C9.83215 25.4624 7.70444 25.4624 5.57819 25.4376C5.14069 25.4332 5.04153 25.5587 5.04298 25.9816C5.05651 28.6793 5.05523 31.3762 5.05395 34.0735ZM27.9503 50.7025L23.4189 50.7022C16.366 50.7016 9.31314 50.7009 2.26029 50.7141C1.76446 50.7141 1.61571 50.596 1.63904 50.0944L1.64291 50.0066C1.68035 49.1507 1.68041 49.1494 2.57821 49.1494L9.38052 49.1495C24.1117 49.1498 38.8437 49.1501 53.5747 49.1362C54.123 49.1362 54.2849 49.2573 54.2528 49.8129L54.2466 49.9196C54.2019 50.7011 54.2018 50.7025 53.3661 50.7025H27.9503ZM18.112 30.5213L18.1135 30.5225H18.112V30.5213ZM18.1108 29.1847C18.1114 29.6178 18.112 30.062 18.112 30.5213C16.7461 29.3529 15.453 29.2994 14.0841 30.5604V29.6154C14.0841 29.2854 14.0846 28.9554 14.0851 28.6253C14.0865 27.7012 14.0879 26.7771 14.0783 25.8529C14.0753 25.5656 14.1191 25.4344 14.4545 25.4417C15.5453 25.4636 16.6362 25.4548 17.7255 25.4461C17.9793 25.4446 18.1222 25.4694 18.1193 25.7888C18.1075 26.892 18.1091 27.9961 18.1108 29.1834V29.1836V29.1838V29.184V29.1847ZM41.456 30.2295L41.4559 30.2294C41.2191 30.1176 41.0012 30.0147 40.8 29.8865C40.1292 29.4578 39.5006 29.4913 38.8094 29.8807C37.7973 30.4494 37.7813 30.4188 37.7813 29.2638C37.7813 28.9523 37.7823 28.6408 37.7833 28.3291V28.329V28.3288V28.3287V28.3283C37.786 27.5313 37.7886 26.7339 37.774 25.9374C37.7667 25.5801 37.8294 25.4269 38.2377 25.4386C39.1401 25.4644 40.0426 25.4571 40.9459 25.4498H40.946C41.1155 25.4484 41.2852 25.447 41.4548 25.4459C41.6852 25.4444 41.8209 25.4634 41.8179 25.7565C41.8083 26.8734 41.8097 27.9912 41.8111 29.1397C41.8116 29.5552 41.8121 29.9748 41.8121 30.3999H41.8092C41.687 30.3385 41.5693 30.283 41.456 30.2295ZM25.9402 5.53383C25.9398 5.95614 25.9394 6.38949 25.9394 6.8377L25.9409 6.83624C27.3117 5.59374 28.6169 5.6827 29.9557 6.77499C29.9557 6.34317 29.9553 5.92253 29.9549 5.51022V5.50985V5.50949V5.50907C29.9539 4.30375 29.9528 3.16958 29.9615 2.03541C29.963 1.76416 29.8361 1.75395 29.6305 1.75395C28.5047 1.76124 27.3803 1.76124 26.2559 1.75395C26.0386 1.75249 25.9321 1.78603 25.9336 2.04416C25.9423 3.17639 25.9413 4.30863 25.9402 5.53383ZM6.80747 53.4195C6.80747 54.0398 6.49977 54.3499 5.88435 54.3499C5.16588 54.3499 4.80664 53.9829 4.80664 53.2489C4.80664 52.6412 5.10365 52.3374 5.69768 52.3374H5.75164C6.45553 52.3374 6.80747 52.6976 6.80747 53.418V53.4195ZM50.1141 54.3514C50.7625 54.3514 51.0868 54.0218 51.0868 53.3626L51.0882 53.3641C51.0882 52.6816 50.7377 52.3403 50.0368 52.3403C49.4029 52.3403 49.0859 52.6631 49.0859 53.3087C49.0859 54.0038 49.4286 54.3514 50.1141 54.3514Z" fill="#026543"/>
</svg>
