<svg width="56" height="56" viewBox="0 0 56 56" fill="none" xmlns="http://www.w3.org/2000/svg">
<path d="M0 2.29243C0.497292 0.826809 1.53271 0.307642 3.05375 0.310559C19.7021 0.336809 36.3504 0.326601 52.9987 0.326601C54.9762 0.326601 55.8994 1.25118 55.8994 3.2316C55.8994 15.642 55.8965 28.0539 55.9037 40.4643C55.9037 41.5187 55.5523 42.3776 54.6 42.8574C54.1829 43.0674 53.6608 43.1476 53.1854 43.1549C51.1846 43.187 49.1823 43.1739 47.1815 43.1622C46.8767 43.1608 46.6827 43.2278 46.5383 43.5253C46.3006 44.0124 46.009 44.4718 45.6881 45.0347C46.1665 45.4839 46.6462 45.952 47.1508 46.3939C47.2369 46.4697 47.4527 46.4799 47.5635 46.4274C48.4196 46.0278 49.1517 46.2058 49.8006 46.8562C50.0704 47.1274 50.3402 47.3972 50.61 47.6685C51.555 48.6208 51.6556 49.1458 51.0869 50.4218C51.536 50.8476 52.0187 51.2895 52.481 51.7489C52.9287 52.1937 52.9594 52.6851 52.5904 53.0366C52.2258 53.3837 51.7796 53.3487 51.3406 52.9156C50.8754 52.4576 50.4262 51.9851 49.9567 51.5039C49.49 51.9866 49.0642 52.427 48.5844 52.9228C49.0262 53.3574 49.4915 53.8066 49.9465 54.2674C50.4015 54.7297 50.4408 55.192 50.0704 55.5566C49.7044 55.9168 49.2465 55.8716 48.7827 55.4108C48.3321 54.9631 47.8917 54.5022 47.4585 54.0604C46.0848 54.7093 45.6312 54.6276 44.5783 53.5762C44.3975 53.3954 44.2181 53.216 44.0373 53.0366C43.0646 52.0639 42.9683 51.4966 43.6406 50.1316C43.3883 49.9216 43.0777 49.697 42.8079 49.4301C42.5513 49.1764 42.3369 48.8803 42.105 48.6018L42.054 48.8206C40.689 49.3951 39.3648 50.1097 37.9517 50.521C31.5919 52.3716 24.8923 49.5133 21.754 43.6726C21.5381 43.2716 21.3048 43.1549 20.8731 43.1578C17.834 43.1754 14.7963 43.1681 11.7571 43.1666C11.5573 43.1666 11.3546 43.1739 11.1577 43.1491C10.7158 43.0937 10.4708 42.8268 10.4533 42.3864C10.4358 41.9445 10.6648 41.6587 11.0965 41.5683C11.289 41.5274 11.4946 41.5318 11.6929 41.5318C14.4944 41.5303 17.2973 41.5303 20.0988 41.5303H20.6821C20.4385 40.0531 20.2023 38.6181 19.9529 37.1058H19.3958C15.3927 37.1058 11.3896 37.1058 7.38792 37.1058C7.26104 37.1058 7.13271 37.1072 7.00583 37.1058C6.32917 37.0912 5.95729 36.7835 5.97187 36.2526C5.985 35.7379 6.32771 35.4695 6.99854 35.4695C11.165 35.4681 15.3315 35.4695 19.4979 35.4695H20.1483L20.4152 33.9412C20.1892 33.931 19.9835 33.9149 19.7765 33.9149C15.664 33.9135 11.5529 33.9149 7.44042 33.9149C7.29458 33.9149 7.14875 33.9179 7.00437 33.9149C6.31604 33.8974 5.95583 33.6014 5.97187 33.0662C5.98646 32.5558 6.33208 32.2801 7.00292 32.2801C11.3881 32.2772 15.7733 32.2699 20.1571 32.2889C20.6938 32.2918 20.9679 32.1708 21.194 31.6283C23.5433 25.9933 29.4073 22.4612 35.3237 23.0693C41.7025 23.7256 46.7206 28.2726 47.899 34.4618C47.9223 34.5872 47.9412 34.7141 47.9471 34.841C47.9704 35.3426 47.7181 35.6883 47.2719 35.7393C46.779 35.7962 46.4712 35.5585 46.3502 35.086C46.1781 34.4181 46.06 33.7341 45.8442 33.0808C44.0825 27.7126 38.8806 24.2899 33.126 24.6954C27.6267 25.0818 22.9133 29.3314 21.9319 34.7841C20.6748 41.771 25.3706 48.3101 32.3779 49.3339C38.9083 50.2876 45.1879 45.7172 46.3065 39.197C46.3312 39.0541 46.3575 38.9097 46.4012 38.7712C46.5456 38.3206 46.8708 38.1295 47.3258 38.2054C47.7969 38.2856 48.0346 38.6195 47.9733 39.0658C47.8844 39.7118 47.7167 40.3476 47.5781 40.9864C47.5446 41.1439 47.4935 41.297 47.4425 41.4837C47.5825 41.5026 47.686 41.5303 47.7896 41.5303C49.6096 41.5333 51.4281 41.5362 53.2481 41.5303C53.9846 41.5274 54.2617 41.2431 54.2617 40.4979C54.2631 30.0883 54.2617 19.6801 54.2617 9.27056V8.84764H53.6287C50.5896 8.84764 47.5519 8.84764 44.5127 8.84764C44.3494 8.84764 44.1831 8.86223 44.0212 8.84035C43.559 8.77764 43.2877 8.49181 43.2833 8.03827C43.279 7.58181 43.5517 7.29598 44.0081 7.22306C44.1685 7.19681 44.3348 7.21139 44.4981 7.21139C47.5373 7.21139 50.575 7.21139 53.6142 7.21139H54.2529C54.2529 5.67868 54.2704 4.19264 54.2427 2.7066C54.2354 2.27639 53.9248 2.02848 53.4917 1.97598C53.3473 1.95848 53.2015 1.96868 53.0556 1.96868C41.3569 1.96868 29.6567 1.96868 17.9579 1.96868H17.3892V7.20702H18.0498C25.2 7.20702 32.3517 7.20702 39.5019 7.20702C39.6652 7.20702 39.83 7.20118 39.9933 7.20993C40.5373 7.24056 40.8698 7.57306 40.8523 8.0616C40.8363 8.52681 40.511 8.81993 39.9817 8.84327C39.8183 8.85056 39.6535 8.84473 39.4902 8.84473C27.1352 8.84473 14.7817 8.84473 2.42667 8.84473H1.63917V9.44118C1.63917 19.7414 1.63917 30.0416 1.63917 40.3403C1.63917 41.2985 1.86667 41.5274 2.82625 41.5289C4.15479 41.5303 5.48333 41.5289 6.81042 41.5318C7.00875 41.5318 7.21437 41.5318 7.40542 41.5799C7.83854 41.6879 8.04125 41.9956 8.00479 42.4301C7.96979 42.8428 7.72771 43.1389 7.31208 43.1418C5.5475 43.1549 3.78146 43.1899 2.02125 43.1068C1.1725 43.0674 0.574583 42.4812 0.212917 41.6995C0.145833 41.5566 0.0729167 41.4151 0.00291667 41.2737C0 28.2814 0 15.2876 0 2.29243ZM15.7033 2.01098C15.6027 1.9891 15.5517 1.96868 15.4992 1.96868C11.1737 1.96577 6.84979 1.96285 2.52437 1.96868C1.93958 1.96868 1.645 2.29535 1.63917 2.90639C1.63042 3.94181 1.63625 4.97868 1.63625 6.0141C1.63625 6.40493 1.63625 6.79577 1.63625 7.15889H15.7033V2.01243V2.01098ZM46.1125 52.7508C47.3244 51.5374 48.5217 50.3387 49.7044 49.1531C49.3208 48.7651 48.876 48.3145 48.5217 47.9558C47.3215 49.1545 46.1227 50.3503 44.959 51.5126C45.3308 51.9108 45.761 52.3716 46.114 52.7508H46.1125ZM46.0746 47.807C45.5831 47.2835 45.1325 46.8022 44.7606 46.407L43.5356 47.6247C43.9396 48.0578 44.3887 48.542 44.8146 48.9985C45.2375 48.5989 45.6692 48.1891 46.0731 47.807H46.0746Z" fill="#026543"/>
<path d="M34.0383 26.9141C39.6325 26.9272 44.1811 31.4874 44.1606 37.0655C44.1417 42.6714 39.6092 47.1893 34.0106 47.1835C28.3931 47.1776 23.8723 42.616 23.8986 36.981C23.9248 31.4101 28.4646 26.901 34.0369 26.9141H34.0383ZM25.7915 38.9862C26.579 43.0024 30.5967 45.8826 34.82 45.521C39.1119 45.1535 42.4631 41.4974 42.5229 37.118C42.5813 32.8583 39.2869 29.0783 35.1131 28.6189C31.4002 28.2091 27.0748 30.5891 26.4317 33.4503C26.6388 33.4503 26.8327 33.4503 27.0281 33.4503C28.4836 33.4503 29.939 33.4474 31.3944 33.4533C31.6102 33.4533 31.8931 33.4153 32.0288 33.5305C32.2665 33.7333 32.5261 34.022 32.5713 34.3078C32.6325 34.6899 32.3569 34.9903 31.9383 35.0618C31.7604 35.0924 31.5752 35.0866 31.3944 35.0866C29.6663 35.088 27.9367 35.0822 26.2086 35.0968C26.0438 35.0968 25.7536 35.2062 25.7375 35.3024C25.6252 35.9674 25.5683 36.6426 25.4911 37.3485C27.4117 37.3485 29.1938 37.3485 30.9758 37.3485C31.3404 37.3485 31.7065 37.3266 32.0667 37.3601C32.5275 37.4039 32.7871 37.6955 32.8221 38.1505C32.8542 38.5778 32.51 38.9322 32.0477 38.9774C31.8669 38.9949 31.6846 38.9847 31.5023 38.9847C29.6108 38.9847 27.7194 38.9847 25.79 38.9847L25.7915 38.9862Z" fill="#026543"/>
<path d="M26.0875 16.4029C27.3125 17.3829 27.3942 18.6545 27.1113 19.9685C26.8503 21.1877 25.7842 21.9752 24.4717 22.0204C23.5077 22.0525 22.5423 22.0408 21.5784 22.0233C20.9411 22.0131 20.6392 21.7039 20.6377 21.0739C20.6305 18.3629 20.6319 15.6504 20.6377 12.9393C20.6392 12.2977 20.9352 12.0075 21.5725 12.0002C22.3002 11.9914 23.028 11.9929 23.7557 12.0002C25.9971 12.0177 27.2819 14.1716 26.2305 16.1448C26.1896 16.222 26.1444 16.2993 26.0861 16.4058L26.0875 16.4029ZM22.3002 20.3841C23.0673 20.3841 23.7746 20.4118 24.4775 20.3754C25.1455 20.3404 25.5363 19.9131 25.5742 19.2539C25.5873 19.0191 25.5873 18.7814 25.5655 18.5466C25.5159 18.0056 25.1921 17.5973 24.6496 17.5593C23.8782 17.5054 23.1009 17.5462 22.3002 17.5462V20.3856V20.3841ZM22.3163 13.6379V15.8589C22.8719 15.8589 23.3955 15.8808 23.9175 15.8531C24.5271 15.8195 24.9719 15.3368 24.9777 14.7564C24.9836 14.1614 24.5082 13.6656 23.8782 13.6408C23.3721 13.6218 22.8661 13.6364 22.3163 13.6364V13.6379Z" fill="#003923"/>
<path d="M19.2378 17.0029C19.2013 17.7817 19.2349 18.5721 19.1124 19.3377C18.8557 20.9302 17.3944 22.0823 15.8194 22.0225C14.1278 21.9583 12.7424 20.7012 12.6447 19.0183C12.5674 17.6971 12.5674 16.3642 12.6388 15.0414C12.738 13.2273 14.2153 11.9512 16.0367 11.9994C17.7488 12.0446 19.1255 13.4329 19.194 15.2019C19.2174 15.8012 19.1984 16.4006 19.1984 17.0014H19.2378V17.0029ZM17.5636 17.051C17.5636 16.4881 17.5738 15.9252 17.5607 15.3623C17.5388 14.3575 16.8447 13.64 15.9069 13.6371C14.9853 13.6342 14.2751 14.3152 14.2503 15.2952C14.2211 16.4385 14.2197 17.5833 14.2503 18.7267C14.2765 19.695 15.0203 20.4023 15.9201 20.3862C16.8228 20.3702 17.5301 19.6469 17.5592 18.6844C17.5753 18.1404 17.5622 17.595 17.5622 17.0496L17.5636 17.051Z" fill="#003923"/>
<path d="M41.0486 20.4103C38.0663 20.4103 35.0855 20.4103 32.1032 20.4103C31.9224 20.4103 31.7328 20.4292 31.5607 20.3884C31.1188 20.2849 30.8593 20.0034 30.8913 19.5324C30.922 19.092 31.1859 18.844 31.6176 18.7842C31.7605 18.7653 31.9078 18.774 32.0536 18.774C38.0532 18.774 44.0528 18.774 50.0524 18.774C50.1982 18.774 50.3455 18.7638 50.4884 18.7842C50.9201 18.847 51.1797 19.0934 51.2103 19.5367C51.2409 19.9845 51.0018 20.2615 50.589 20.3782C50.4184 20.4263 50.2288 20.4103 50.048 20.4117C47.0482 20.4132 44.0484 20.4117 41.0486 20.4117V20.4103Z" fill="#026543"/>
<path d="M9.60005 13.6341C8.6565 13.6341 7.78296 13.6472 6.91234 13.6297C6.3115 13.6166 5.93525 13.2228 6.01109 12.7095C6.07525 12.2793 6.33775 12.0109 6.78109 12.0051C8.00025 11.992 9.21942 11.9891 10.4386 12.0051C10.9432 12.0109 11.2421 12.323 11.245 12.8436C11.2538 14.8809 11.2844 16.9211 11.2319 18.957C11.1896 20.6589 9.64525 22.0457 7.93463 22.0239C6.1963 22.002 4.75838 20.6239 4.684 18.9045C4.67088 18.5953 4.66505 18.2847 4.684 17.977C4.71171 17.5351 4.96109 17.2697 5.4015 17.2274C5.87109 17.1836 6.18317 17.4184 6.27067 17.8705C6.33192 18.187 6.29546 18.5224 6.3188 18.8491C6.38005 19.7036 7.09755 20.3759 7.94484 20.3847C8.75713 20.3934 9.56213 19.7489 9.584 18.9293C9.63213 17.188 9.59859 15.4439 9.59859 13.6326L9.60005 13.6341Z" fill="#003923"/>
<path d="M49.7656 14.2896C49.7656 14.3436 49.7845 14.4092 49.7627 14.4515C49.3602 15.223 49.8997 15.6313 50.3679 16.0863C50.8535 16.5588 50.8899 17.0488 50.5049 17.4119C50.1404 17.7561 49.681 17.6963 49.2129 17.2427C49.0947 17.129 48.9679 17.0225 48.8672 16.8957C48.6091 16.5705 48.3481 16.4727 47.8916 16.5734C46.5266 16.8738 45.306 15.9434 45.1266 14.5536C44.9633 13.298 45.9827 12.0788 47.2558 12.0044C48.6339 11.9242 49.7568 12.9465 49.7656 14.2911V14.2896ZM47.4424 13.6377C47.0604 13.6377 46.7264 13.9557 46.7585 14.3275C46.792 14.7155 47.0049 14.9648 47.4177 14.9867C47.8041 15.0071 48.1249 14.7052 48.1322 14.3261C48.1395 13.9484 47.8289 13.6377 47.4424 13.6377Z" fill="#003923"/>
<path d="M10.8091 30.7106C9.53739 30.7106 8.26572 30.7135 6.99552 30.7106C6.32468 30.7077 5.98343 30.4423 5.96739 29.9289C5.94989 29.3966 6.32031 29.0773 6.99552 29.0773C9.53885 29.0714 12.0807 29.0758 14.6241 29.0758C14.697 29.0758 14.7699 29.0743 14.8413 29.0816C15.3547 29.1385 15.6697 29.4666 15.6536 29.9289C15.6391 30.3956 15.3226 30.7018 14.7874 30.7077C13.4618 30.7208 12.1361 30.712 10.8105 30.712L10.8091 30.7106Z" fill="#026543"/>
<path d="M50.3895 24.012C49.9388 23.9974 49.5597 23.5847 49.5917 23.1428C49.6224 22.7082 49.9957 22.3728 50.4361 22.383C50.9028 22.3947 51.2469 22.7724 51.2222 23.2435C51.1974 23.6795 50.8226 24.0266 50.3909 24.012H50.3895Z" fill="#026543"/>
<path d="M8.62004 3.78136C9.08525 3.77406 9.46442 4.14302 9.45712 4.59511C9.45129 5.02677 9.09108 5.38261 8.65358 5.39136C8.17817 5.40011 7.82379 5.04865 7.82817 4.57469C7.83254 4.11969 8.16358 3.78865 8.61858 3.78136H8.62004Z" fill="#003923"/>
<path d="M5.79124 3.78125C6.25937 3.78125 6.62249 4.15167 6.60645 4.6125C6.59041 5.05146 6.23603 5.3898 5.78978 5.3898C5.31874 5.3898 4.96437 5.02521 4.97895 4.55709C4.99353 4.10938 5.3377 3.7798 5.78978 3.78125H5.79124Z" fill="#003923"/>
<path d="M12.3122 4.60197C12.302 5.0526 11.9054 5.41281 11.446 5.39093C10.9939 5.36906 10.6731 5.02635 10.6818 4.56989C10.6906 4.09593 11.0537 3.75906 11.532 3.78239C11.9695 3.80427 12.3224 4.17468 12.3122 4.60197Z" fill="#003923"/>
</svg>
