<svg width="96" height="96" viewBox="0 0 96 96" fill="none" xmlns="http://www.w3.org/2000/svg">
<path d="M61.8873 54.9637L58.9642 54.1097H58.9377C58.6985 54.0563 58.5391 53.8429 58.5391 53.6027C58.5391 53.3625 58.6985 53.149 58.9377 53.0957L61.8608 52.2417C64.5712 51.4678 66.6439 49.3863 67.4146 46.6644L68.2649 43.7289C68.3978 43.2753 69.1684 43.2753 69.3013 43.7289L70.1516 46.6644C70.9222 49.3863 72.995 51.4678 75.7055 52.2417L78.6286 53.0957C78.8677 53.149 79.0271 53.3625 79.0271 53.6027C79.0271 53.8429 78.8677 54.0563 78.6286 54.1097L75.7055 54.9637C72.995 55.7376 70.9222 57.819 70.1516 60.541L69.3013 63.4765C69.2481 63.7166 69.0355 63.8767 68.7964 63.8767C68.5572 63.8767 68.3712 63.7166 68.2915 63.4765L67.4411 60.541C66.6705 57.819 64.5978 55.7376 61.8873 54.9637Z" fill="white"/>
<path d="M27.7394 51.1224L21.774 49.3797H21.7198C21.2317 49.2708 20.9062 48.8351 20.9062 48.3449C20.9062 47.8548 21.2317 47.4191 21.7198 47.3102L27.6852 45.5674C33.2168 43.9881 37.4468 39.7401 39.0195 34.1851L40.7549 28.1944C41.0261 27.2685 42.5988 27.2685 42.87 28.1944L44.6053 34.1851C46.1781 39.7401 50.4082 43.9881 55.9398 45.5674L61.9052 47.3102C62.3933 47.4191 62.7186 47.8548 62.7186 48.3449C62.7186 48.8351 62.3933 49.2708 61.9052 49.3797L55.9398 51.1224C50.4082 52.7018 46.1781 56.9498 44.6053 62.5048L42.87 68.4955C42.7615 68.9856 42.3276 69.3124 41.8396 69.3124C41.3515 69.3124 40.9719 68.9856 40.8092 68.4955L39.0738 62.5048C37.501 56.9498 33.271 52.7018 27.7394 51.1224Z" fill="white"/>
<path d="M59.5828 32.3221L57.2103 33.0152H57.1888C56.9947 33.0585 56.8652 33.2318 56.8652 33.4267C56.8652 33.6216 56.9947 33.7949 57.1888 33.8382L59.5612 34.5313C61.7612 35.1595 63.4435 36.8489 64.0689 39.0581L64.7591 41.4406C64.8669 41.8088 65.4924 41.8088 65.6003 41.4406L66.2904 39.0581C66.9159 36.8489 68.5982 35.1595 70.7982 34.5313L73.1706 33.8382C73.3647 33.7949 73.4941 33.6216 73.4941 33.4267C73.4941 33.2318 73.3647 33.0585 73.1706 33.0152L70.7982 32.3221C68.5982 31.694 66.9159 30.0045 66.2904 27.7953L65.6003 25.4128C65.5571 25.2178 65.3846 25.0879 65.1905 25.0879C64.9964 25.0879 64.8454 25.2178 64.7807 25.4128L64.0905 27.7953C63.465 30.0045 61.7827 31.694 59.5828 32.3221Z" fill="white"/>
</svg>
