<?xml version="1.0" encoding="utf-8"?>
<!-- Generator: Adobe Illustrator 24.3.0, SVG Export Plug-In . SVG Version: 6.00 Build 0)  -->
<svg version="1.1" xmlns="http://www.w3.org/2000/svg" xmlns:xlink="http://www.w3.org/1999/xlink" x="0px" y="0px"
	 viewBox="0 0 119.7 40" style="enable-background:new 0 0 119.7 40;" xml:space="preserve">
<style type="text/css">
	.st0{fill:#FFFFFF;}
	.st1{fill:#231F20;}
	.st2{display:none;}
	.st3{display:inline;fill:#231F20;}
	.st4{display:inline;fill-rule:evenodd;clip-rule:evenodd;fill:#FFFFFF;}
</style>
<g id="livetype">
	<path class="st0" d="M113.8,39.2H5.7c-2.7,0-5-2.2-5-5V5.9c0-2.7,2.2-5,5-5h108.1c2.7,0,5,2.2,5,5v28.4
		C118.7,37,116.5,39.2,113.8,39.2z"/>
	<g>
		<g>
			<g id="XMLID_2_">
				<g id="XMLID_1_">
					<g id="XMLID_9_">
						<path id="XMLID_11_" class="st1" d="M25,19.9c0-2.9,2.3-4.3,2.5-4.3c-1.3-2-3.4-2.2-4.2-2.2c-1.7-0.2-3.4,1-4.3,1
							s-2.3-1-3.8-1c-1.9,0-3.7,1.1-4.7,2.8c-2,3.5-0.5,8.6,1.4,11.4c1,1.4,2.1,2.9,3.6,2.9c1.4-0.1,2-0.9,3.7-0.9s2.2,0.9,3.7,0.9
							s2.5-1.4,3.5-2.8c1.1-1.6,1.6-3.1,1.6-3.2C28,24.5,25,23.3,25,19.9z"/>
						<path id="XMLID_10_" class="st1" d="M22.2,11.5c0.8-1,1.3-2.3,1.2-3.6c-1.1,0-2.5,0.8-3.3,1.7c-0.7,0.8-1.4,2.2-1.2,3.5
							C20.1,13.2,21.3,12.4,22.2,11.5z"/>
					</g>
				</g>
				<g>
					<path class="st1" d="M42.3,27.1h-4.7l-1.1,3.4h-2L39,18.1h2l4.5,12.4h-2L42.3,27.1z M38.1,25.6h3.8L40,20.1h-0.1L38.1,25.6z"/>
					<path class="st1" d="M55.2,26c0,2.8-1.5,4.6-3.8,4.6c-1.3,0-2.3-0.6-2.8-1.6l0,0v4.5h-1.9v-12h1.8V23l0,0
						c0.5-1,1.6-1.6,2.9-1.6C53.6,21.3,55.2,23.2,55.2,26z M53.2,26c0-1.8-0.9-3-2.4-3c-1.4,0-2.4,1.2-2.4,3s1,3,2.4,3
						C52.3,29,53.2,27.8,53.2,26z"/>
					<path class="st1" d="M65.1,26c0,2.8-1.5,4.6-3.8,4.6C60,30.6,59,30,58.5,29l0,0v4.5h-1.9v-12h1.8V23l0,0c0.5-1,1.6-1.6,2.9-1.6
						C63.6,21.3,65.1,23.2,65.1,26z M63.2,26c0-1.8-0.9-3-2.4-3c-1.4,0-2.4,1.2-2.4,3s1,3,2.4,3C62.3,29,63.2,27.8,63.2,26z"/>
					<path class="st1" d="M71.7,27c0.1,1.2,1.3,2,3,2c1.6,0,2.7-0.8,2.7-1.9c0-1-0.7-1.5-2.3-1.9l-1.6-0.4c-2.3-0.6-3.3-1.6-3.3-3.3
						c0-2.1,1.9-3.6,4.5-3.6s4.4,1.5,4.5,3.6h-1.9c-0.1-1.2-1.1-2-2.6-2s-2.5,0.8-2.5,1.9c0,0.9,0.7,1.4,2.3,1.8l1.4,0.3
						c2.5,0.6,3.6,1.6,3.6,3.4c0,2.3-1.8,3.8-4.8,3.8c-2.8,0-4.6-1.4-4.7-3.7C70,27,71.7,27,71.7,27z"/>
					<path class="st1" d="M83.3,19.3v2.1H85v1.5h-1.7v5c0,0.8,0.3,1.1,1.1,1.1c0.2,0,0.5,0,0.6,0v1.5c-0.2,0.1-0.6,0.1-1,0.1
						c-1.8,0-2.5-0.7-2.5-2.4V23h-1.3v-1.5h1.3v-2.1h1.8V19.3z"/>
					<path class="st1" d="M86.1,26c0-2.8,1.7-4.6,4.3-4.6c2.6,0,4.3,1.8,4.3,4.6c0,2.9-1.7,4.6-4.3,4.6C87.7,30.6,86.1,28.8,86.1,26
						z M92.8,26c0-2-0.9-3.1-2.4-3.1S88,24,88,26s0.9,3.1,2.4,3.1S92.8,27.9,92.8,26z"/>
					<path class="st1" d="M96.2,21.4H98V23l0,0c0.3-1,1.1-1.6,2.2-1.6c0.3,0,0.5,0,0.6,0.1v1.7c-0.1-0.1-0.5-0.1-0.8-0.1
						c-1.2,0-1.9,0.8-1.9,2.1v5.4h-1.9C96.2,30.6,96.2,21.4,96.2,21.4z"/>
					<path class="st1" d="M109.4,27.8c-0.3,1.6-1.9,2.8-3.9,2.8c-2.6,0-4.3-1.8-4.3-4.6s1.6-4.7,4.2-4.7c2.5,0,4.1,1.7,4.1,4.5v0.6
						h-6.4v0.1c0,1.5,1,2.6,2.4,2.6c1,0,1.8-0.5,2.1-1.3C107.6,27.8,109.4,27.8,109.4,27.8z M103.1,25.1h4.5c0-1.4-0.9-2.3-2.2-2.3
						C104.1,22.8,103.2,23.8,103.1,25.1z"/>
				</g>
			</g>
		</g>
		<g id="XMLID_3_">
			<g>
				<path class="st1" d="M37.8,8.7c1.8,0,2.8,1.1,2.8,3s-1,3-2.8,3h-2.2v-6H37.8z M36.6,13.9h1.1c1.2,0,2-0.8,2-2.1s-0.7-2.1-2-2.1
					h-1.1V13.9z"/>
				<path class="st1" d="M41.7,12.4c0-1.5,0.8-2.3,2.1-2.3s2.1,0.9,2.1,2.3c0,1.5-0.8,2.3-2.1,2.3C42.5,14.8,41.7,13.9,41.7,12.4z
					 M45,12.4c0-1-0.4-1.5-1.2-1.5s-1.2,0.6-1.2,1.5c0,1,0.4,1.6,1.2,1.6S45,13.4,45,12.4z"/>
				<path class="st1" d="M51.6,14.7h-0.9l-0.9-3.3h-0.1l-0.9,3.3h-0.9l-1.2-4.5h0.9l0.8,3.4h0.1l0.9-3.4h0.9l0.9,3.4h0.1l0.8-3.4H53
					L51.6,14.7z"/>
				<path class="st1" d="M53.9,10.2h0.9v0.7h0.1c0.2-0.5,0.7-0.8,1.3-0.8c1,0,1.6,0.6,1.6,1.7v2.9h-0.9V12c0-0.7-0.3-1.1-1-1.1
					s-1.1,0.4-1.1,1.1v2.6h-0.9C53.9,14.6,53.9,10.2,53.9,10.2z"/>
				<path class="st1" d="M59.1,8.4H60v6.3h-0.9V8.4z"/>
				<path class="st1" d="M61.2,12.4c0-1.5,0.8-2.3,2.1-2.3s2.1,0.9,2.1,2.3c0,1.5-0.8,2.3-2.1,2.3C62,14.8,61.2,13.9,61.2,12.4z
					 M64.6,12.4c0-1-0.4-1.5-1.2-1.5s-1.2,0.6-1.2,1.5c0,1,0.4,1.6,1.2,1.6C64.1,14,64.6,13.4,64.6,12.4z"/>
				<path class="st1" d="M66.4,13.4c0-0.8,0.6-1.3,1.7-1.3l1.2-0.1v-0.4c0-0.5-0.3-0.7-0.9-0.7c-0.5,0-0.8,0.2-0.9,0.5h-0.9
					c0.1-0.8,0.8-1.3,1.8-1.3c1.1,0,1.8,0.6,1.8,1.5v3.1h-0.9v-0.6h-0.1c-0.3,0.5-0.8,0.7-1.4,0.7C67,14.8,66.4,14.2,66.4,13.4z
					 M69.3,13v-0.4l-1.1,0.1c-0.6,0-0.9,0.3-0.9,0.6c0,0.4,0.4,0.6,0.8,0.6C68.8,14,69.3,13.6,69.3,13z"/>
				<path class="st1" d="M71.3,12.4c0-1.4,0.7-2.3,1.9-2.3c0.6,0,1.1,0.3,1.4,0.8h0.1V8.4h0.9v6.3h-0.9V14h-0.1
					c-0.3,0.5-0.8,0.8-1.4,0.8C72.1,14.8,71.3,13.9,71.3,12.4z M72.3,12.4c0,1,0.5,1.5,1.2,1.5s1.2-0.6,1.2-1.5s-0.5-1.5-1.2-1.5
					C72.7,10.9,72.3,11.5,72.3,12.4z"/>
				<path class="st1" d="M79.2,12.4c0-1.5,0.8-2.3,2.1-2.3c1.3,0,2.1,0.9,2.1,2.3c0,1.5-0.8,2.3-2.1,2.3
					C80,14.8,79.2,13.9,79.2,12.4z M82.6,12.4c0-1-0.4-1.5-1.2-1.5c-0.8,0-1.2,0.6-1.2,1.5c0,1,0.4,1.6,1.2,1.6
					C82.1,14,82.6,13.4,82.6,12.4z"/>
				<path class="st1" d="M84.7,10.2h0.9v0.7h0.1c0.2-0.5,0.7-0.8,1.3-0.8c1,0,1.6,0.6,1.6,1.7v2.9h-0.9V12c0-0.7-0.3-1.1-1-1.1
					s-1.1,0.4-1.1,1.1v2.6h-0.9V10.2z"/>
				<path class="st1" d="M93.5,9.1v1.1h1V11h-1v2.3c0,0.5,0.2,0.7,0.6,0.7c0.1,0,0.2,0,0.3,0v0.7c-0.1,0-0.3,0-0.5,0
					c-1,0-1.4-0.3-1.4-1.2V11h-0.7v-0.7h0.7V9.1H93.5z"/>
				<path class="st1" d="M95.7,8.4h0.9v2.5h0.1c0.2-0.5,0.7-0.8,1.4-0.8c1,0,1.6,0.6,1.6,1.7v2.9h-0.9V12c0-0.7-0.3-1.1-1-1.1
					s-1.1,0.5-1.1,1.1v2.6h-0.9L95.7,8.4L95.7,8.4z"/>
				<path class="st1" d="M104.8,13.5c-0.2,0.8-0.9,1.3-2,1.3c-1.3,0-2.1-0.9-2.1-2.3s0.8-2.4,2.1-2.4c1.3,0,2,0.9,2,2.3v0.3h-3.2
					l0,0c0,0.8,0.5,1.3,1.2,1.3c0.5,0,0.9-0.2,1.1-0.5C103.9,13.5,104.8,13.5,104.8,13.5z M101.6,12h2.3c0-0.7-0.5-1.2-1.1-1.2
					C102.1,10.9,101.7,11.3,101.6,12z"/>
			</g>
		</g>
	</g>
</g>
<g id="Layer_2" class="st2">
	<path id="Path_5" class="st3" d="M23.2,11.9h-8.9c-4.2,0-5.7,1.4-5.7,5.3v8.2c0,3.9,1.5,5.3,5.7,5.3h8.9c4.2,0,5.7-1.4,5.7-5.3
		v-8.2C29,13.3,27.4,11.9,23.2,11.9z"/>
	<path id="Path_6" class="st4" d="M17.3,23.2L17,23.7h-0.5l1.2-2.4h0.5l1.2,2.4h-0.6l-0.2-0.5H17.3z M17.5,22.8h0.8l-0.4-0.9
		L17.5,22.8z M26.2,21.3h0.5v2.4h-0.5V21.3z M24,23.3h1.5v0.4h-2v-2.4h2v0.5H24v0.5h1v0.5h-1V23.3z M22.5,21.3h0.6l-0.9,2.5h-0.5
		l-0.6-1.6l-0.6,1.6H20l-0.9-2.5h0.6l0.6,1.7l0.6-1.7h0.4l0.6,1.7L22.5,21.3z M15.7,21.3h0.5v1.4c0,0.7-0.4,1.1-1.2,1.1
		c-0.7,0-1.1-0.4-1.1-1.1v-1.4h0.5v1.4c0,0.4,0.2,0.6,0.6,0.6c0.4,0,0.6-0.2,0.6-0.6V21.3z M12.6,21.3h0.5v2.5h-0.5v-1h-1.2v1h-0.5
		v-2.5h0.5v1h1.2V21.3z M18.8,18.2c-1.9,0-3.4-1.4-3.4-3.1h0.5c0,1.5,1.3,2.7,2.9,2.7c1.6,0,2.9-1.2,2.9-2.7h0.5
		C22.2,16.8,20.6,18.2,18.8,18.2z"/>
	<path id="AppGallery" class="st3" d="M40,25.3l-1.9-4.6l-1.8,4.6H40z M33.6,28.7l3.8-9.3H39l3.8,9.3h-1.4l-0.9-2.4h-4.5L35,28.7
		H33.6z M45.4,27.6v3.7h-1.2v-9.6h1.2v1c0.3-0.4,0.6-0.7,1-0.9c0.4-0.2,0.9-0.3,1.4-0.3c0.9,0,1.7,0.3,2.2,1
		c0.6,0.7,0.9,1.6,0.9,2.6c0,1.1-0.3,2-0.9,2.6c-0.6,0.7-1.3,1-2.2,1c-0.6,0-1-0.1-1.4-0.3C46,28.4,45.7,28.1,45.4,27.6z M49.6,25.2
		c0-0.8-0.2-1.5-0.6-2c-0.4-0.5-0.9-0.7-1.5-0.7c-0.7,0-1.2,0.2-1.6,0.7c-0.4,0.5-0.6,1.1-0.6,2s0.2,1.5,0.6,2
		c0.4,0.5,0.9,0.7,1.6,0.7c0.7,0,1.2-0.2,1.5-0.7C49.5,26.7,49.6,26.1,49.6,25.2z M54.2,27.6v3.7H53v-9.6h1.3v1
		c0.3-0.4,0.6-0.7,1-0.9c0.4-0.2,0.9-0.3,1.4-0.3c0.9,0,1.7,0.3,2.2,1c0.6,0.7,0.9,1.6,0.9,2.6c0,1.1-0.3,2-0.9,2.6
		c-0.6,0.7-1.3,1-2.2,1c-0.6,0-1-0.1-1.4-0.3C54.8,28.4,54.5,28.1,54.2,27.6z M58.4,25.2c0-0.8-0.2-1.5-0.6-2
		c-0.4-0.5-0.9-0.7-1.5-0.7c-0.7,0-1.2,0.2-1.6,0.7c-0.4,0.5-0.6,1.1-0.6,2s0.2,1.5,0.6,2c0.4,0.5,0.9,0.7,1.6,0.7
		c0.7,0,1.2-0.2,1.5-0.7C58.2,26.7,58.4,26.1,58.4,25.2z M68.7,27.4v-2.5h-2.2v-1H70v4c-0.5,0.3-1.1,0.6-1.7,0.8
		c-0.6,0.2-1.3,0.3-2,0.3c-1.6,0-2.8-0.4-3.7-1.3c-0.9-0.8-1.3-2-1.3-3.5s0.4-2.7,1.3-3.5c0.9-0.9,2.1-1.3,3.7-1.3
		c0.7,0,1.3,0.1,1.9,0.2c0.6,0.1,1.1,0.4,1.6,0.7v1.3c-0.5-0.4-1-0.7-1.6-0.9s-1.2-0.3-1.8-0.3c-1.2,0-2.2,0.3-2.8,0.9
		c-0.6,0.6-0.9,1.6-0.9,2.8s0.3,2.2,0.9,2.8c0.6,0.6,1.6,0.9,2.8,0.9c0.5,0,0.9,0,1.3-0.1C68,27.6,68.4,27.5,68.7,27.4z M77.1,25.2
		h-1.2c-1,0-1.7,0.1-2.1,0.3c-0.4,0.2-0.6,0.6-0.6,1.1c0,0.4,0.1,0.7,0.4,1c0.3,0.2,0.7,0.4,1.2,0.4c0.7,0,1.2-0.2,1.7-0.7
		c0.4-0.4,0.6-1,0.6-1.8L77.1,25.2L77.1,25.2z M78.3,24.7v4h-1.2v-1.1c-0.3,0.4-0.6,0.7-1.1,0.9c-0.4,0.2-0.9,0.3-1.6,0.3
		c-0.8,0-1.4-0.2-1.8-0.6c-0.5-0.4-0.7-0.9-0.7-1.6c0-0.8,0.3-1.4,0.9-1.8c0.6-0.4,1.4-0.6,2.6-0.6h1.7v-0.1c0-0.5-0.2-0.9-0.6-1.2
		c-0.4-0.3-0.9-0.4-1.6-0.4c-0.4,0-0.9,0-1.3,0.1c-0.4,0.1-0.8,0.2-1.2,0.4V22c0.5-0.2,0.9-0.3,1.3-0.4c0.4-0.1,0.8-0.1,1.2-0.1
		c1.1,0,1.9,0.3,2.5,0.8C78.1,22.9,78.3,23.7,78.3,24.7z M80.9,28.7V19h1.2v9.7H80.9z M84.7,28.7V19H86v9.7H84.7z M95,24.9v0.6h-5.7
		c0.1,0.8,0.3,1.4,0.8,1.8c0.5,0.4,1.1,0.6,1.9,0.6c0.5,0,0.9-0.1,1.4-0.2c0.5-0.1,0.9-0.3,1.3-0.5v1.1c-0.4,0.2-0.9,0.3-1.4,0.4
		c-0.5,0.1-0.9,0.1-1.4,0.1c-1.2,0-2.2-0.3-2.9-1c-0.7-0.6-1.1-1.5-1.1-2.6c0-1.1,0.3-2,1-2.7c0.7-0.7,1.6-1,2.7-1
		c1,0,1.8,0.3,2.4,0.9C94.7,23.1,95,23.9,95,24.9z M89.3,24.6h4.4c0-0.6-0.2-1.1-0.6-1.5c-0.4-0.4-0.9-0.6-1.5-0.6
		c-0.7,0-1.2,0.2-1.7,0.5C89.6,23.4,89.4,23.9,89.3,24.6z M101.4,21.6l0,1.2c-0.1-0.1-0.3-0.1-0.5-0.2c-0.2,0-0.3-0.1-0.5-0.1
		c-0.7,0-1.2,0.2-1.6,0.6c-0.4,0.4-0.6,1-0.6,1.8v3.7H97v-7h1.2v1.1c0.3-0.4,0.6-0.7,1-0.9c0.4-0.2,0.9-0.3,1.5-0.3
		c0.1,0,0.2,0,0.3,0C101.1,21.6,101.2,21.6,101.4,21.6z M109.2,21.7l-3.3,7.6c-0.4,0.8-0.7,1.4-1,1.6c-0.3,0.3-0.8,0.4-1.3,0.4h-1
		v-1h0.7c0.3,0,0.6-0.1,0.8-0.2c0.2-0.1,0.4-0.5,0.6-1.1l0.2-0.5l-3.1-6.8h1.3l2.4,5.4l2.4-5.4H109.2z"/>
	<path id="EXPLORE_IT_ON" class="st3" d="M33.5,16.2v-4.8h3.3v0.5h-2.6v1.4h2.5v0.5h-2.5v1.7h2.7v0.5L33.5,16.2L33.5,16.2z
		 M39.4,13.6l-1.6-2.2h0.8l1.3,1.8l1.3-1.8h0.8l-1.7,2.3l1.8,2.5h-0.8l-1.5-2l-1.5,2h-0.8L39.4,13.6z M44.5,11.9h-0.9v1.8h0.9
		c0.3,0,0.6-0.1,0.8-0.2c0.2-0.2,0.3-0.4,0.3-0.7c0-0.3-0.1-0.5-0.3-0.7C45.1,12,44.8,11.9,44.5,11.9z M42.9,16.2v-4.8h1.6
		c0.6,0,1,0.1,1.3,0.4c0.3,0.2,0.4,0.6,0.4,1.1c0,0.5-0.1,0.8-0.4,1.1c-0.3,0.2-0.7,0.4-1.3,0.4h-0.9v1.9L42.9,16.2L42.9,16.2z
		 M47.2,16.2v-4.8h0.7v4.2h2.5v0.5H47.2z M53,11.8c-0.5,0-0.9,0.2-1.2,0.5c-0.3,0.3-0.4,0.8-0.4,1.4c0,0.6,0.1,1.1,0.4,1.4
		c0.3,0.3,0.7,0.5,1.2,0.5c0.5,0,0.9-0.2,1.2-0.5c0.3-0.4,0.5-0.8,0.5-1.4c0-0.6-0.1-1.1-0.5-1.4C53.9,12,53.5,11.8,53,11.8z
		 M53,11.3c0.7,0,1.3,0.2,1.7,0.7c0.4,0.4,0.7,1.1,0.7,1.8c0,0.8-0.2,1.4-0.7,1.8c-0.4,0.4-1,0.7-1.7,0.7c-0.7,0-1.3-0.2-1.8-0.7
		c-0.4-0.4-0.7-1.1-0.7-1.8c0-0.8,0.2-1.4,0.7-1.8C51.7,11.5,52.3,11.3,53,11.3z M59,13.9c0.2,0,0.3,0.1,0.4,0.3
		c0.1,0.2,0.3,0.4,0.4,0.6l0.7,1.3h-0.8l-0.7-1.2c-0.2-0.3-0.3-0.5-0.5-0.6c-0.2-0.1-0.4-0.2-0.7-0.2h-0.8v2h-0.7v-4.8h1.6
		c0.6,0,1,0.1,1.3,0.3c0.3,0.2,0.4,0.6,0.4,1c0,0.3-0.1,0.6-0.2,0.8C59.5,13.7,59.3,13.8,59,13.9z M58.1,11.9h-0.9v1.7h0.9
		c0.3,0,0.6-0.1,0.8-0.2c0.2-0.1,0.3-0.4,0.3-0.6c0-0.3-0.1-0.5-0.3-0.6C58.7,12,58.5,11.9,58.1,11.9z M61.5,16.2v-4.8h3.3v0.5h-2.6
		v1.4h2.5v0.5h-2.5v1.7h2.6v0.5L61.5,16.2L61.5,16.2z M68.3,16.2v-4.8H69v4.8H68.3z M69.7,11.9v-0.5h4.4v0.5h-1.8v4.2h-0.7v-4.2
		H69.7z M79.1,11.8c-0.5,0-0.9,0.2-1.2,0.5c-0.3,0.3-0.5,0.8-0.5,1.4c0,0.6,0.1,1.1,0.5,1.4c0.3,0.3,0.7,0.5,1.2,0.5
		c0.5,0,0.9-0.2,1.2-0.5c0.3-0.4,0.4-0.8,0.4-1.4c0-0.6-0.1-1.1-0.4-1.4C80,12,79.6,11.8,79.1,11.8z M79.1,11.3
		c0.7,0,1.3,0.2,1.8,0.7c0.4,0.4,0.7,1.1,0.7,1.8c0,0.8-0.2,1.4-0.7,1.8c-0.4,0.4-1,0.7-1.8,0.7c-0.7,0-1.3-0.2-1.8-0.7
		c-0.4-0.4-0.7-1.1-0.7-1.8c0-0.8,0.2-1.4,0.7-1.8C77.8,11.5,78.4,11.3,79.1,11.3z M82.6,16.2v-4.8h0.9l2.3,4v-4h0.7v4.8h-1l-2.3-4
		v4H82.6z"/>
</g>
</svg>
