<?xml version="1.0" encoding="utf-8"?>
<!-- Generator: Adobe Illustrator 24.3.0, SVG Export Plug-In . SVG Version: 6.00 Build 0)  -->
<svg version="1.1" id="livetype" xmlns="http://www.w3.org/2000/svg" xmlns:xlink="http://www.w3.org/1999/xlink" x="0px" y="0px"
	 viewBox="0 0 119.7 40" style="enable-background:new 0 0 119.7 40;" xml:space="preserve">
<style type="text/css">
	.st0{fill:#FFFFFF;}
	.st1{fill:#020202;}
</style>
<path class="st0" d="M113.8,39.2H5.8c-2.7,0-5-2.2-5-5V5.9c0-2.7,2.2-5,5-5h108.1c2.7,0,5,2.2,5,5v28.4
	C118.8,37,116.6,39.2,113.8,39.2z"/>
<path class="st0" d="M119.7,8.4c0-0.3,0-0.6,0-0.9c0-0.7-0.1-1.3-0.2-2s-0.3-1.3-0.6-1.9c-0.3-0.6-0.7-1.1-1.2-1.6s-1-0.9-1.6-1.2
	s-1.2-0.5-1.9-0.6c-0.7-0.1-1.3-0.2-2-0.2c-0.3,0-0.6,0-0.9,0c-0.4,0-0.7,0-1.1,0H9.5C9.2,0,8.8,0,8.4,0C8.1,0,7.8,0,7.5,0
	c-0.7,0-1.3,0.1-2,0.2S4.2,0.5,3.6,0.8S2.5,1.5,2,2S1.1,3,0.8,3.6S0.3,4.9,0.2,5.5C0.1,6.2,0,6.9,0,7.5c0,0.3,0,0.6,0,0.9
	c0,0.4,0,0.7,0,1.1v20.9c0,0.4,0,0.7,0,1.1c0,0.3,0,0.6,0,0.9c0,0.7,0.1,1.3,0.2,2s0.3,1.3,0.6,1.9C1.1,37,1.5,37.5,2,38
	s1,0.9,1.6,1.2s1.2,0.5,1.9,0.6s1.3,0.2,2,0.2c0.3,0,0.6,0,0.9,0c0.4,0,0.7,0,1.1,0h100.6c0.4,0,0.7,0,1.1,0c0.3,0,0.6,0,0.9,0
	c0.7,0,1.3-0.1,2-0.2c0.7-0.1,1.3-0.3,1.9-0.6s1.1-0.7,1.6-1.2s0.9-1,1.2-1.6c0.3-0.6,0.5-1.2,0.6-1.9s0.2-1.3,0.2-2
	c0-0.3,0-0.6,0-0.9c0-0.4,0-0.7,0-1.1v-21C119.7,9.2,119.7,8.8,119.7,8.4z M118.8,30.5c0,0.4,0,0.7,0,1.1c0,0.3,0,0.6,0,0.9
	c0,0.6-0.1,1.2-0.2,1.9c-0.1,0.6-0.3,1.2-0.5,1.7c-0.3,0.5-0.6,1-1,1.4s-0.9,0.8-1.4,1c-0.5,0.3-1,0.4-1.7,0.5
	c-0.6,0.1-1.3,0.1-1.9,0.2c-0.3,0-0.6,0-0.9,0h-1.1H8.4c-0.3,0-0.6,0-0.9,0c-0.6,0-1.2,0-1.9-0.2c-0.6-0.1-1.2-0.3-1.7-0.5
	c-0.5-0.3-1-0.6-1.4-1s-0.8-0.9-1-1.4c-0.3-0.5-0.4-1-0.5-1.7S0.8,33,0.8,32.5c0-0.2,0-0.9,0-0.9V8.4c0,0,0-0.7,0-0.9
	c0-0.5,0-1.2,0.2-1.9C1.2,5.1,1.3,4.5,1.6,4s0.6-1,1-1.4s0.9-0.7,1.4-1s1.1-0.4,1.7-0.5C6.3,0.9,7,0.9,7.5,0.9h0.9h102.8h0.9
	c0.5,0,1.2,0,1.9,0.2c0.6,0.1,1.1,0.3,1.7,0.5c0.5,0.3,1,0.6,1.4,1s0.8,0.9,1,1.4c0.3,0.5,0.4,1.1,0.5,1.6c0.1,0.6,0.2,1.3,0.2,1.9
	c0,0.3,0,0.6,0,0.9c0,0.4,0,0.7,0,1.1V30.5z"/>
<g>
	<path class="st0" d="M38.7,10.6h-0.8c0-0.1-0.1-0.4-0.2-0.9h-1.1c-0.2,0.5-0.2,0.8-0.2,0.9h-0.7c0-0.1,0.2-0.6,0.6-1.6
		c0.4-1,0.6-1.5,0.6-1.6h0.9C37.8,7.5,38,8,38.3,9C38.5,10,38.7,10.6,38.7,10.6z M37.5,9.2c-0.3-0.9-0.4-1.3-0.4-1.4l0,0
		c0,0.1-0.1,0.5-0.4,1.4H37.5z"/>
	<path class="st0" d="M41.9,10.6h-0.6c0-0.1-0.2-0.4-0.7-1.1c-0.5-0.7-0.7-1.2-0.8-1.4l0,0c0,0.4,0.1,0.7,0.1,1c0,0.4,0,0.9,0,1.5
		h-0.6c0-0.5,0-1.1,0-1.7c0-0.6,0-1.1,0-1.5H40c0,0.1,0.2,0.4,0.6,1.1c0.4,0.7,0.7,1.1,0.8,1.3l0,0c0-0.4-0.1-0.7-0.1-1
		c0-0.4,0-0.9,0-1.4h0.6c0,0.4,0,0.9,0,1.5C41.8,9.6,41.8,10.1,41.9,10.6z"/>
	<path class="st0" d="M45.5,8.9c0,0.5-0.2,0.9-0.5,1.2c-0.3,0.4-0.7,0.5-1.3,0.5c-0.2,0-0.6,0-1,0c0-0.5,0-1.1,0-1.7
		c0-0.6,0-1.1,0-1.5h0.4c0.1,0,0.2,0,0.3,0s0.2,0,0.3,0c0.6,0,1,0.1,1.3,0.4C45.3,8.1,45.5,8.5,45.5,8.9z M44.8,9
		c0-0.3-0.1-0.6-0.3-0.8S44,7.9,43.7,7.9c-0.1,0-0.2,0-0.3,0c0,0.3,0,0.7,0,1c0,0.4,0,0.8,0,1.2c0.1,0,0.2,0,0.3,0
		c0.4,0,0.6-0.1,0.8-0.3C44.7,9.6,44.8,9.3,44.8,9z"/>
	<path class="st0" d="M48.8,10.6h-0.7c-0.2-0.6-0.3-0.9-0.4-1.1c-0.1-0.1-0.3-0.2-0.5-0.2c-0.1,0-0.2,0-0.3,0c0,0.4,0,0.9,0,1.3
		h-0.7c0-0.5,0-1.1,0-1.7c0-0.6,0-1.1,0-1.5h0.4c0,0,0.2,0,0.3,0c0.2,0,0.3,0,0.4,0c0.8,0,1.1,0.3,1.1,0.8c0,0.4-0.2,0.7-0.7,0.9
		l0,0c0.2,0,0.3,0.2,0.4,0.4C48.4,9.7,48.6,10.1,48.8,10.6z M47.9,8.4c0-0.3-0.2-0.5-0.6-0.5c-0.2,0-0.3,0-0.4,0c0,0.3,0,0.6,0,1
		c0.1,0,0.2,0,0.2,0C47.6,8.9,47.9,8.7,47.9,8.4z"/>
	<path class="st0" d="M52.4,9c0,0.5-0.2,0.9-0.5,1.3c-0.3,0.3-0.7,0.5-1.2,0.5c-0.4,0-0.8-0.2-1.1-0.5s-0.4-0.7-0.4-1.2
		s0.2-0.9,0.5-1.3c0.3-0.3,0.7-0.5,1.2-0.5c0.4,0,0.8,0.2,1.1,0.5C52.2,8.1,52.4,8.5,52.4,9z M51.7,9c0-0.3-0.1-0.6-0.3-0.8
		S51,7.9,50.7,7.9c-0.2,0-0.4,0.1-0.6,0.3C50,8.4,49.9,8.7,49.9,9s0.1,0.6,0.3,0.8s0.4,0.3,0.7,0.3c0.2,0,0.4-0.1,0.6-0.3
		C51.6,9.6,51.7,9.4,51.7,9z"/>
	<path class="st0" d="M53.8,10.6h-0.7c0-0.5,0-1.1,0-1.7c0-0.6,0-1.1,0-1.5h0.7c0,0.4,0,0.9,0,1.5C53.7,9.6,53.7,10.1,53.8,10.6z"/>
	<path class="st0" d="M57.4,8.9c0,0.5-0.2,0.9-0.5,1.2c-0.3,0.4-0.7,0.5-1.3,0.5c-0.2,0-0.6,0-1,0c0-0.5,0-1.1,0-1.7
		c0-0.6,0-1.1,0-1.5H55c0.1,0,0.2,0,0.3,0s0.2,0,0.3,0c0.6,0,1,0.1,1.3,0.4C57.2,8.1,57.4,8.5,57.4,8.9z M56.7,9
		c0-0.3-0.1-0.6-0.3-0.8s-0.5-0.3-0.9-0.3c-0.1,0-0.2,0-0.3,0c0,0.3,0,0.7,0,1c0,0.4,0,0.8,0,1.2c0.1,0,0.2,0,0.3,0
		c0.4,0,0.6-0.1,0.8-0.3C56.6,9.6,56.7,9.3,56.7,9z"/>
	<path class="st0" d="M62.1,10.6h-0.8c0-0.1-0.1-0.4-0.2-0.9H60c-0.2,0.5-0.2,0.8-0.2,0.9H59c0-0.1,0.2-0.6,0.6-1.6
		c0.4-1,0.6-1.5,0.6-1.6h0.9c0,0.1,0.2,0.6,0.5,1.6C62,10,62.1,10.6,62.1,10.6z M61,9.2c-0.3-0.9-0.4-1.3-0.4-1.4l0,0
		c0,0.1-0.1,0.5-0.4,1.4H61z"/>
	<path class="st0" d="M65,8.3c0,0.4-0.1,0.7-0.4,0.9s-0.7,0.3-1.1,0.3c-0.1,0-0.1,0-0.2,0c0,0.3,0,0.7,0,1.2h-0.7c0-0.5,0-1,0-1.7
		c0-0.6,0-1.1,0-1.5H63c0.1,0,0.2,0,0.4,0s0.3,0,0.5,0c0.3,0,0.6,0.1,0.8,0.2C64.9,7.7,65,8,65,8.3z M64.4,8.4
		c0-0.4-0.2-0.5-0.7-0.5c-0.1,0-0.2,0-0.4,0c0,0.3,0,0.7,0,1.1h0.1C64.1,9,64.4,8.8,64.4,8.4z"/>
	<path class="st0" d="M68,8.3c0,0.4-0.1,0.7-0.4,0.9s-0.7,0.3-1.1,0.3c-0.1,0-0.1,0-0.2,0c0,0.3,0,0.7,0,1.2h-0.7c0-0.5,0-1,0-1.7
		c0-0.6,0-1.1,0-1.5H66c0.1,0,0.2,0,0.4,0c0.2,0,0.3,0,0.5,0c0.3,0,0.6,0.1,0.8,0.2C67.9,7.7,68,8,68,8.3z M67.4,8.4
		c0-0.4-0.2-0.5-0.7-0.5c-0.1,0-0.2,0-0.4,0c0,0.3,0,0.7,0,1.1h0.1C67.1,9,67.4,8.8,67.4,8.4z"/>
	<path class="st0" d="M72.9,9c0,0.5-0.2,0.9-0.5,1.3c-0.3,0.3-0.7,0.5-1.2,0.5c-0.4,0-0.8-0.2-1.1-0.5c-0.3-0.3-0.4-0.7-0.4-1.2
		s0.2-0.9,0.5-1.3c0.3-0.3,0.7-0.5,1.2-0.5c0.4,0,0.8,0.2,1.1,0.5C72.8,8.1,72.9,8.5,72.9,9z M72.2,9c0-0.3-0.1-0.6-0.3-0.8
		c-0.2-0.2-0.4-0.3-0.7-0.3c-0.2,0-0.4,0.1-0.6,0.3c-0.2,0.2-0.3,0.5-0.3,0.8s0.1,0.6,0.3,0.8c0.2,0.2,0.4,0.3,0.7,0.3
		c0.2,0,0.4-0.1,0.6-0.3C72.1,9.6,72.2,9.4,72.2,9z"/>
	<path class="st0" d="M76.3,10.6h-0.6c0-0.1-0.2-0.4-0.7-1.1c-0.5-0.7-0.7-1.2-0.8-1.4l0,0c0,0.4,0.1,0.7,0.1,1c0,0.4,0,0.9,0,1.5
		h-0.6c0-0.5,0-1.1,0-1.7c0-0.6,0-1.1,0-1.5h0.7c0,0.1,0.2,0.4,0.6,1.1s0.7,1.1,0.8,1.3l0,0c0-0.4-0.1-0.7-0.1-1c0-0.4,0-0.9,0-1.4
		h0.6c0,0.4,0,0.9,0,1.5C76.2,9.6,76.3,10.1,76.3,10.6z"/>
</g>
<g>
	<path d="M46.9,21c0,1.6-0.5,2.9-1.4,3.8c-1.1,1.1-2.5,1.7-4.2,1.7s-3.1-0.6-4.2-1.7c-1.2-1.2-1.7-2.6-1.7-4.3
		c0-1.7,0.6-3.1,1.7-4.3c1.2-1.2,2.6-1.7,4.2-1.7c0.8,0,1.6,0.2,2.4,0.5c0.7,0.3,1.4,0.8,1.8,1.3l-1,1c-0.8-0.9-1.8-1.4-3.2-1.4
		c-1.2,0-2.3,0.4-3.1,1.3c-0.9,0.9-1.3,2-1.3,3.3c0,1.4,0.4,2.5,1.3,3.3c0.9,0.9,1.9,1.3,3.1,1.3c1.3,0,2.4-0.4,3.2-1.3
		c0.6-0.6,0.9-1.3,1-2.3h-4.2v-1.4h5.6C46.9,20.5,46.9,20.7,46.9,21z"/>
	<path d="M48.7,19.4c0.8-0.8,1.7-1.2,2.9-1.2s2.1,0.4,2.9,1.2c0.8,0.8,1.1,1.8,1.1,3s-0.4,2.2-1.1,3c-0.8,0.8-1.7,1.2-2.9,1.2
		s-2.1-0.4-2.9-1.2c-0.8-0.8-1.1-1.8-1.1-3S47.9,20.2,48.7,19.4z M49.8,24.4c0.5,0.5,1.1,0.8,1.8,0.8s1.3-0.3,1.8-0.8
		s0.8-1.2,0.8-2.1s-0.3-1.5-0.8-2.1c-0.5-0.5-1.1-0.8-1.8-0.8s-1.3,0.3-1.8,0.8S49,21.4,49,22.3C49,23.2,49.3,23.9,49.8,24.4z"/>
	<path d="M57.3,19.4c0.8-0.8,1.7-1.2,2.9-1.2s2.1,0.4,2.9,1.2c0.8,0.8,1.1,1.8,1.1,3s-0.4,2.2-1.1,3c-0.8,0.8-1.7,1.2-2.9,1.2
		s-2.1-0.4-2.9-1.2c-0.8-0.8-1.1-1.8-1.1-3S56.5,20.2,57.3,19.4z M58.4,24.4c0.5,0.5,1.1,0.8,1.8,0.8s1.3-0.3,1.8-0.8
		s0.8-1.2,0.8-2.1s-0.3-1.5-0.8-2.1c-0.5-0.5-1.1-0.8-1.8-0.8s-1.3,0.3-1.8,0.8s-0.8,1.2-0.8,2.1C57.6,23.2,57.9,23.9,58.4,24.4z"/>
	<path d="M68.6,30c-0.9,0-1.7-0.2-2.3-0.7c-0.6-0.5-1-1-1.3-1.6l1.4-0.6c0.1,0.4,0.4,0.8,0.8,1.1c0.4,0.3,0.9,0.4,1.4,0.4
		c0.8,0,1.5-0.2,1.9-0.7c0.5-0.5,0.7-1.1,0.7-2v-0.8h-0.1c-0.3,0.4-0.6,0.7-1.1,1s-1,0.4-1.6,0.4c-1,0-1.9-0.4-2.6-1.2
		c-0.7-0.8-1.1-1.8-1.1-3s0.4-2.2,1.1-3s1.6-1.2,2.6-1.2c0.6,0,1.1,0.1,1.6,0.4s0.8,0.6,1.1,1h0.1v-1.1h1.4v7.5
		c0,1.4-0.4,2.4-1.2,3.1C70.7,29.7,69.7,30,68.6,30z M68.7,25.2c0.7,0,1.3-0.3,1.8-0.8s0.7-1.2,0.7-2.1s-0.2-1.6-0.7-2.1
		s-1.1-0.8-1.8-0.8c-0.7,0-1.3,0.3-1.8,0.8s-0.7,1.2-0.7,2.1s0.2,1.5,0.7,2.1C67.5,25,68,25.2,68.7,25.2z"/>
	<path d="M75.5,26.3H74V14.8h1.5V26.3z"/>
	<path d="M80.4,26.6c-1.2,0-2.2-0.4-2.9-1.2c-0.7-0.8-1.1-1.8-1.1-3c0-1.1,0.4-2.1,1.1-3c0.7-0.8,1.6-1.2,2.8-1.2
		c1.2,0,2.1,0.4,2.8,1.1c0.7,0.8,1.1,1.8,1.1,3.1v0.3H78c0,0.8,0.3,1.4,0.8,1.9s1.1,0.7,1.7,0.7c1.1,0,1.8-0.5,2.2-1.4l1.3,0.5
		c-0.3,0.6-0.7,1.1-1.3,1.5C82,26.4,81.3,26.6,80.4,26.6z M82.5,21.4c0-0.5-0.2-0.9-0.6-1.3s-0.9-0.6-1.7-0.6c-0.5,0-1,0.2-1.4,0.5
		s-0.7,0.8-0.8,1.4H82.5z"/>
	<path d="M89.9,26.3h-1.5V14.8h3.9c1,0,1.8,0.3,2.5,1c0.7,0.6,1.1,1.5,1.1,2.5s-0.4,1.8-1.1,2.5c-0.7,0.6-1.6,1-2.5,1h-2.4V26.3z
		 M89.9,20.2h2.5c0.6,0,1.1-0.2,1.5-0.6s0.6-0.9,0.6-1.4s-0.2-1-0.6-1.4s-0.9-0.6-1.5-0.6h-2.5V20.2z"/>
	<path d="M98.4,26.3h-1.5V14.8h1.5V26.3z"/>
	<path d="M102.2,26.6c-0.8,0-1.5-0.2-2.1-0.7s-0.8-1.1-0.8-1.9c0-0.9,0.3-1.5,1-2s1.5-0.7,2.5-0.7c0.9,0,1.6,0.2,2.1,0.5v-0.2
		c0-0.6-0.2-1-0.6-1.4c-0.4-0.3-0.9-0.5-1.5-0.5c-0.4,0-0.8,0.1-1.2,0.3c-0.3,0.2-0.6,0.5-0.7,0.8l-1.4-0.6c0.2-0.5,0.5-0.9,1.1-1.3
		c0.5-0.4,1.2-0.6,2.1-0.6c1,0,1.8,0.3,2.5,0.9s1,1.4,1,2.5v4.8h-1.4v-1.1h-0.1C104.2,26.1,103.4,26.6,102.2,26.6z M102.5,25.2
		c0.6,0,1.2-0.2,1.7-0.7s0.7-1,0.7-1.6c-0.4-0.3-1-0.5-1.9-0.5c-0.7,0-1.3,0.2-1.6,0.5c-0.4,0.3-0.5,0.7-0.5,1.1s0.2,0.7,0.5,0.9
		C101.7,25.1,102,25.2,102.5,25.2z"/>
	<path d="M109.5,29.8H108l1.8-4l-3.2-7.4h1.6l2.3,5.7l0,0l2.3-5.7h1.6L109.5,29.8z"/>
</g>
<g>
	<path class="st1" d="M7.7,20.4c0-3.7,0-7.4,0-11c0-0.5,0.1-0.9,0.4-1.2C8.2,8,8.3,8,8.5,8.1c2.5,2.5,5,5,7.4,7.6
		c1.6,1.6,3.2,3.3,4.8,4.9c0.2,0.2,0.2,0.2,0,0.4c-3.9,3.9-7.9,7.8-11.8,11.8c-0.2,0.2-0.4,0.2-0.6,0c-0.4-0.3-0.6-0.8-0.6-1.3
		c0-2.2,0-4.4,0-6.5C7.7,23.4,7.7,21.9,7.7,20.4L7.7,20.4z"/>
	<path class="st1" d="M9.1,7.7c0.3,0,0.5,0.1,0.7,0.2c5,2.8,10.1,5.6,15.1,8.5c0.2,0.1,0.2,0.2,0,0.4c-1.1,1.1-2.2,2.2-3.4,3.3
		c-0.1,0.1-0.2,0.2-0.4,0c-4-4.1-8-8.2-12-12.2C9.2,7.8,9.2,7.8,9.1,7.7z"/>
	<path class="st1" d="M10.3,32.7c3.7-3.7,7.3-7.4,11-11.1c0.2-0.2,0.3-0.2,0.5,0c0.9,1,1.9,1.9,2.8,2.9c0.2,0.2,0.2,0.2,0,0.4
		c-4.7,2.6-9.4,5.1-14.1,7.7C10.4,32.6,10.3,32.6,10.3,32.7z"/>
	<path class="st1" d="M31.1,20.5c0,0.4-0.2,0.7-0.5,0.9c-0.2,0.2-0.5,0.3-0.7,0.4c-1.4,0.8-2.8,1.6-4.3,2.4
		c-0.2,0.1-0.3,0.1-0.5-0.1c-1-1-2-2.1-3-3.1c-0.1-0.1-0.2-0.2,0-0.4c1.2-1.2,2.4-2.4,3.6-3.5c0.1-0.1,0.2-0.2,0.4-0.1
		c1.4,0.8,2.8,1.6,4.2,2.4C30.8,19.6,31.1,19.9,31.1,20.5z"/>
</g>
</svg>
