<svg width="32" height="33" viewBox="0 0 32 33" fill="none" xmlns="http://www.w3.org/2000/svg">
<path opacity="0.4" d="M13.9209 19.5664L14.7876 20.4331C15.0409 20.6864 15.4542 20.6864 15.7076 20.4464L18.0809 18.2598" stroke="white" stroke-width="1.5" stroke-linecap="round" stroke-linejoin="round"/>
<path d="M10.6668 29.8333H21.3334C26.6934 29.8333 27.6534 27.6867 27.9334 25.0733L28.9334 14.4067C29.2934 11.1533 28.3601 8.5 22.6668 8.5H9.33343C3.64009 8.5 2.70676 11.1533 3.06676 14.4067L4.06676 25.0733C4.34676 27.6867 5.30676 29.8333 10.6668 29.8333Z" stroke="white" stroke-width="1.5" stroke-miterlimit="10" stroke-linecap="round" stroke-linejoin="round"/>
<path opacity="0.4" d="M10.667 8.50033V7.43366C10.667 5.07366 10.667 3.16699 14.9337 3.16699H17.067C21.3337 3.16699 21.3337 5.07366 21.3337 7.43366V8.50033" stroke="white" stroke-width="1.5" stroke-miterlimit="10" stroke-linecap="round" stroke-linejoin="round"/>
<g opacity="0.4">
<path d="M16.0003 24.7673C18.9458 24.7673 21.3337 22.3794 21.3337 19.4339C21.3337 16.4884 18.9458 14.1006 16.0003 14.1006C13.0548 14.1006 10.667 16.4884 10.667 19.4339C10.667 22.3794 13.0548 24.7673 16.0003 24.7673Z" stroke="white" stroke-width="1.5" stroke-miterlimit="10" stroke-linecap="round" stroke-linejoin="round"/>
<path d="M28.8667 15.167C26.56 16.847 24 18.0203 21.3467 18.687" stroke="white" stroke-width="1.5" stroke-miterlimit="10" stroke-linecap="round" stroke-linejoin="round"/>
<path d="M3.49219 15.5264C5.71885 17.0464 8.14552 18.1264 10.6655 18.7397" stroke="white" stroke-width="1.5" stroke-miterlimit="10" stroke-linecap="round" stroke-linejoin="round"/>
</g>
</svg>
