<svg width="56" height="56" viewBox="0 0 56 56" fill="none" xmlns="http://www.w3.org/2000/svg">
<path d="M55.9998 41.6961C55.5267 42.9949 54.5683 43.4092 53.2326 43.3983C48.539 43.3572 43.8441 43.3819 39.1492 43.3819C38.9168 43.3819 38.6843 43.3819 38.4177 43.3819V49.2006H45.9728C45.9728 48.1096 45.9728 47.024 45.9728 45.9371C45.9728 45.7184 45.9605 45.4983 45.9906 45.2836C46.0535 44.8352 46.2969 44.5467 46.7754 44.5289C47.2101 44.5139 47.5519 44.8324 47.5738 45.326C47.6039 45.9795 47.5847 46.6358 47.5861 47.2906C47.5861 47.9223 47.5861 48.5553 47.5861 49.2444C48.5992 49.2444 49.5576 49.2293 50.5174 49.2485C52.0008 49.2772 53.0631 50.3121 53.0508 51.6889C53.0398 52.9289 52.0924 53.9488 50.8537 54.0487C50.6185 54.0678 50.3806 54.0719 50.1455 54.0719C34.8248 54.0719 19.5041 54.0733 4.18335 54.0692C3.80464 54.0692 3.41089 54.0651 3.04859 53.9721C1.96304 53.6946 1.2603 52.7006 1.29585 51.5699C1.3314 50.4653 2.13394 49.5233 3.23862 49.3154C3.50523 49.2649 3.78003 49.2512 4.0521 49.2498C4.92437 49.2416 5.798 49.2471 6.71538 49.2471V21.8992C5.89644 22.4393 5.12534 22.9711 4.33101 23.4647C2.98159 24.3041 1.40796 23.9623 0.549366 22.6676C-0.165674 21.5875 0.00795904 20.1055 0.973194 19.236C1.25483 18.9817 1.57339 18.7643 1.88921 18.5524C3.71851 17.3301 5.55191 16.1133 7.38531 14.8965C7.5357 14.7967 7.68882 14.686 7.85562 14.6258C8.24117 14.4877 8.58706 14.5752 8.81128 14.928C9.03413 15.2793 8.97945 15.6266 8.68003 15.9164C8.55015 16.0422 8.39566 16.142 8.2439 16.2418C6.33804 17.5133 4.42945 18.7821 2.52359 20.0522C2.37183 20.1533 2.21597 20.2504 2.08198 20.3707C1.68687 20.7276 1.59663 21.3209 1.85913 21.7639C2.1353 22.2301 2.72183 22.442 3.23316 22.2328C3.44917 22.144 3.64605 22.0045 3.84292 21.8746C11.2162 16.9705 18.5894 12.0651 25.9627 7.1596C27.014 6.45959 27.3271 6.45959 28.3798 7.1596C35.7531 12.0651 43.1263 16.9705 50.501 21.8733C50.6978 22.0031 50.8947 22.144 51.1094 22.2328C51.6193 22.4434 52.2072 22.2315 52.4834 21.7639C52.75 21.3114 52.6638 20.7371 52.2605 20.3735C52.1265 20.2532 51.9707 20.1547 51.8189 20.0549C43.7511 14.6846 35.6806 9.31702 27.6183 3.93713C27.2738 3.70745 27.0509 3.71838 26.7132 3.94397C22.1947 6.96819 17.6652 9.976 13.1384 12.9865C12.3892 13.4842 11.9257 13.491 11.6236 13.0098C11.3351 12.5504 11.5224 12.143 12.2457 11.6617C16.8326 8.60881 21.4195 5.55588 26.0064 2.50295C26.9867 1.85081 27.3586 1.85081 28.3361 2.50159C36.4668 7.91018 44.5961 13.3201 52.7254 18.7301C54.0119 19.5873 54.5095 20.7864 54.1021 22.0264C53.5402 23.7326 51.6261 24.4408 50.0635 23.492C49.2582 23.0026 48.4857 22.4584 47.5902 21.8678C47.5902 22.2643 47.597 22.576 47.5888 22.8877C47.5724 23.4893 47.2566 23.8653 46.7795 23.8612C46.3064 23.8584 45.9933 23.4852 45.9797 22.8768C45.9674 22.3313 45.9564 21.7844 45.9838 21.2389C46.0002 20.9094 45.8881 20.7153 45.6119 20.5321C39.5812 16.5317 33.5547 12.5231 27.5336 8.50764C27.2683 8.33127 27.0851 8.32444 26.8158 8.50354C20.7961 12.5203 14.7681 16.5262 8.75113 20.5485C8.56656 20.6715 8.38745 20.9668 8.38745 21.1828C8.36968 30.3908 8.37242 39.6002 8.37242 48.8082C8.37242 48.9313 8.38746 49.0543 8.39839 49.2088H19.5738V43.3778C18.8246 43.3778 18.1027 43.3805 17.3795 43.3778C15.6568 43.3709 14.8406 42.5547 14.8406 40.8348C14.8406 36.3764 14.8406 31.918 14.8406 27.4582C14.8406 25.8559 15.6964 24.9891 17.2892 24.9877C22.1113 24.985 26.9334 24.9877 31.7554 24.9877H32.5101C32.5101 24.2112 32.4554 23.4838 32.5211 22.7688C32.6591 21.2977 33.9443 20.1848 35.4209 20.1848C36.8961 20.1848 38.1826 21.3004 38.3193 22.7701C38.3863 23.4852 38.3302 24.2125 38.3302 24.9877C38.6584 24.9877 38.873 24.9877 39.0863 24.9877C43.8168 24.9877 48.5486 25.011 53.2791 24.9727C54.6258 24.9617 55.5637 25.4143 55.9998 26.7309V41.6906V41.6961ZM35.4195 26.6065C29.4326 26.6065 23.447 26.6065 17.4601 26.6065C16.5181 26.6065 16.4498 26.6721 16.4498 27.5854C16.4498 31.9891 16.4498 36.3942 16.4498 40.7979C16.4498 41.6865 16.5591 41.7932 17.4601 41.7932C29.4326 41.7932 41.4064 41.7932 53.3789 41.7932C54.2799 41.7932 54.3906 41.6852 54.3906 40.7979C54.3906 36.3942 54.3906 31.9891 54.3906 27.5854C54.3906 26.6735 54.3195 26.6065 53.3789 26.6065C47.392 26.6065 41.4064 26.6065 35.4195 26.6065ZM21.2213 49.2156H32.4172V43.4256H21.2213V49.2156ZM32.4213 50.8617C32.1847 50.8617 32.0043 50.8617 31.8252 50.8617C22.5884 50.8617 13.3517 50.8617 4.11499 50.8617C4.00562 50.8617 3.89624 50.859 3.78823 50.8631C3.25093 50.8877 2.92691 51.1707 2.9064 51.6315C2.88452 52.1127 3.20991 52.4381 3.76773 52.4873C3.89351 52.4983 4.02202 52.4914 4.14917 52.4914C13.3681 52.4914 22.5871 52.4914 31.8047 52.4914H32.4213V50.8617ZM34.1043 43.4201V52.4559H36.758V43.4201H34.1043ZM38.415 52.4627C38.5558 52.4764 38.6269 52.4901 38.6967 52.4901C42.6068 52.4901 46.5183 52.4928 50.4285 52.4901C50.5898 52.4901 50.758 52.4655 50.9097 52.4149C51.283 52.2891 51.5181 51.991 51.4129 51.6246C51.3349 51.3526 51.0834 51.1051 50.8551 50.9123C50.7429 50.818 50.5051 50.8658 50.3246 50.8658C46.5416 50.8645 42.7586 50.8645 38.9756 50.8658C38.7978 50.8658 38.6215 50.8809 38.4177 50.8891V52.4641L38.415 52.4627ZM36.7744 24.9809C36.7744 24.3 36.8045 23.6684 36.7662 23.0408C36.7265 22.386 36.1523 21.8487 35.5275 21.809C34.8726 21.768 34.2068 22.1836 34.1261 22.8344C34.0373 23.5371 34.1056 24.2604 34.1056 24.9809H36.7744Z" fill="#026543"/>
<path d="M27.1628 21.8691C24.3942 21.8595 22.1302 19.5818 22.1466 16.8214C22.163 14.0802 24.4011 11.8353 27.1505 11.8011C29.8712 11.7683 32.1927 14.083 32.1995 16.8351C32.2063 19.5873 29.9136 21.8787 27.1628 21.8691ZM23.8952 16.0093H26.3438V13.5634C25.1311 13.7849 24.0811 14.8376 23.8952 16.0093ZM27.9845 16.0175H30.4276C30.3183 14.8828 29.1083 13.6824 27.9845 13.5798V16.0175ZM23.9075 17.6691C24.0647 18.8462 25.2337 19.9947 26.3302 20.0945V17.6691H23.9075ZM28.0022 17.6759V20.1287C29.2354 19.8757 30.3101 18.7847 30.4263 17.6759H28.0022Z" fill="#00F293"/>
<path d="M37.2233 33.5428C37.2233 34.9072 37.226 36.2703 37.2233 37.6348C37.2233 38.1953 37.0168 38.41 36.4918 38.4196C35.9449 38.4291 35.7125 38.2008 35.7112 37.6225C35.7071 35.3666 35.7112 33.1108 35.7098 30.8549C35.7098 30.5063 35.6715 30.1289 36.1227 30.0168C36.5656 29.9061 37.0059 29.9102 37.3121 30.319C37.4858 30.55 37.6239 30.8098 37.7578 31.0668C38.4127 32.3219 39.0621 33.5811 39.7826 34.9742C39.8114 34.7117 39.8346 34.5887 39.836 34.4656C39.8387 33.2461 39.836 32.0279 39.8387 30.8084C39.8387 30.1508 40.0192 29.9539 40.603 29.9621C41.1799 29.9703 41.3481 30.1645 41.3494 30.8385C41.3508 33.0766 41.3467 35.3133 41.3522 37.5514C41.3522 37.9164 41.3399 38.2623 40.9065 38.3744C40.4457 38.4934 40.0178 38.425 39.758 37.9875C39.4326 37.442 39.1483 36.8719 38.8475 36.3113C38.343 35.3748 37.8399 34.4369 37.3354 33.499L37.2246 33.5428H37.2233Z" fill="#003923"/>
<path d="M26.544 34.7295C27.0007 35.5758 27.4491 36.4029 27.8921 37.2328C28.1724 37.7564 28.0958 38.0558 27.6269 38.3266C27.1798 38.585 26.8325 38.4797 26.5618 37.9711C26.1517 37.2014 25.7183 36.4412 25.3751 35.6428C25.1085 35.0234 24.7407 34.7637 24.0134 34.9934C24.0134 35.8383 24.0147 36.7228 24.0134 37.6074C24.012 38.2035 23.8056 38.4236 23.2587 38.4195C22.7145 38.4168 22.504 38.1953 22.504 37.5965C22.5013 35.3051 22.5013 33.0137 22.504 30.7223C22.504 30.0893 22.638 29.9484 23.2724 29.9498C24.1269 29.9498 24.9827 29.9402 25.8331 29.999C27.0485 30.0838 27.7472 30.6922 27.9687 31.7435C28.1983 32.8346 27.8429 34.2072 26.7368 34.5941C26.6739 34.616 26.6233 34.6721 26.5427 34.7295H26.544ZM24.0407 33.7342C24.4755 33.7342 24.8556 33.7355 25.2356 33.7342C25.345 33.7342 25.4544 33.7287 25.5624 33.7137C26.2036 33.6275 26.5099 33.2516 26.5222 32.542C26.5345 31.8023 26.2282 31.3771 25.5706 31.3225C25.0729 31.2801 24.5685 31.3142 24.0421 31.3142V33.7355L24.0407 33.7342Z" fill="#003923"/>
<path d="M30.8879 31.2747V33.5989C31.4129 33.5989 31.9161 33.6085 32.4178 33.5962C32.8444 33.5853 33.0768 33.7657 33.0741 34.1991C33.0713 34.6134 32.8198 34.7761 32.4383 34.7788C31.9338 34.7829 31.4293 34.7788 30.8961 34.7788V37.1072C31.8778 37.1072 32.8362 37.1058 33.7959 37.1072C34.3948 37.1085 34.6163 37.2999 34.5999 37.7948C34.5835 38.3308 34.2526 38.4347 33.7877 38.4279C32.5874 38.4101 31.387 38.4265 30.1866 38.4197C29.4852 38.4155 29.354 38.2816 29.3526 37.5911C29.3512 35.3175 29.3512 33.0439 29.3526 30.7702C29.3526 30.1222 29.492 29.9595 30.1442 29.9513C31.3993 29.9349 32.6543 29.9499 33.9094 29.9445C34.3551 29.9431 34.5958 30.1441 34.5985 30.5952C34.6026 31.0696 34.362 31.2829 33.8848 31.2775C32.9045 31.2665 31.9256 31.2747 30.8866 31.2747H30.8879Z" fill="#003923"/>
<path d="M44.5786 31.3111C44.0208 31.3111 43.5505 31.3043 43.0801 31.3139C42.6071 31.3234 42.4294 31.0568 42.4239 30.6316C42.4198 30.1996 42.6085 29.944 43.0747 29.9453C44.5841 29.9494 46.0948 29.9467 47.6042 29.9467C48.0704 29.9467 48.2563 30.2119 48.2468 30.6412C48.2385 31.0719 48.0403 31.3221 47.5755 31.3139C47.1038 31.3057 46.6335 31.3125 46.0825 31.3125C46.0825 31.5408 46.0825 31.7336 46.0825 31.9264C46.0825 33.8186 46.0825 35.7107 46.0825 37.6029C46.0825 38.2045 45.8815 38.4191 45.3346 38.4178C44.7891 38.4178 44.5813 38.2004 44.58 37.5975C44.5759 35.7231 44.5786 33.85 44.5786 31.9756C44.5786 31.7787 44.5786 31.5805 44.5786 31.3125V31.3111Z" fill="#003923"/>
</svg>
