<svg width="19" height="19" viewBox="0 0 19 19" fill="none" xmlns="http://www.w3.org/2000/svg">
<path d="M17.4166 3.95817C17.4163 3.48868 17.2769 3.02979 17.016 2.63948C16.7551 2.24918 16.3843 1.94497 15.9506 1.76529C15.5168 1.5856 15.0395 1.53852 14.579 1.62996C14.1185 1.7214 13.6954 1.94727 13.3632 2.27905C13.0312 2.6112 12.805 3.03435 12.7134 3.49499C12.6218 3.95564 12.6689 4.43309 12.8486 4.867C13.0273 5.30152 13.3312 5.67302 13.7218 5.93414C14.1123 6.19526 14.5718 6.33417 15.0416 6.33317C15.6715 6.33317 16.2756 6.08295 16.721 5.63755C17.1664 5.19215 17.4166 4.58806 17.4166 3.95817Z" stroke="white" stroke-width="1.425" stroke-miterlimit="10" stroke-linecap="square"/>
<path d="M17.4166 15.0412C17.4163 14.5717 17.2769 14.1128 17.016 13.7225C16.7551 13.3322 16.3843 13.028 15.9506 12.8483C15.5168 12.6686 15.0395 12.6215 14.579 12.713C14.1185 12.8044 13.6954 13.0303 13.3632 13.3621C13.0312 13.6942 12.805 14.1174 12.7134 14.578C12.6218 15.0386 12.6689 15.5161 12.8486 15.95C13.0273 16.3845 13.3312 16.756 13.7218 17.0171C14.1123 17.2783 14.5718 17.4172 15.0416 17.4162C15.6715 17.4162 16.2756 17.166 16.721 16.7206C17.1664 16.2752 17.4166 15.6711 17.4166 15.0412Z" stroke="white" stroke-width="1.425" stroke-miterlimit="10" stroke-linecap="square"/>
<path d="M6.33295 9.50016C6.3327 9.03067 6.19332 8.57178 5.93239 8.18148C5.67145 7.79117 5.30069 7.48696 4.86694 7.30728C4.43319 7.1276 3.95585 7.08051 3.49534 7.17195C3.03484 7.26339 2.61181 7.48926 2.27963 7.82104C1.94758 8.15319 1.72142 8.57634 1.62982 9.03699C1.53823 9.49763 1.5853 9.97508 1.76502 10.409C1.94363 10.8435 2.24761 11.215 2.63816 11.4761C3.02871 11.7372 3.48816 11.8762 3.95795 11.8752C4.58784 11.8752 5.19195 11.6249 5.63735 11.1795C6.08275 10.7341 6.33295 10.1301 6.33295 9.50016Z" stroke="white" stroke-width="1.425" stroke-miterlimit="10" stroke-linecap="square"/>
<path opacity="0.4" d="M12.9675 5.10596L6.08008 8.43888" stroke="white" stroke-width="1.425" stroke-miterlimit="10" stroke-linecap="square"/>
<path opacity="0.4" d="M5.9928 10.7109L12.8566 14.1072" stroke="white" stroke-width="1.425" stroke-miterlimit="10" stroke-linecap="square"/>
</svg>
