<svg width="56" height="57" viewBox="0 0 56 57" fill="none" xmlns="http://www.w3.org/2000/svg">
<path d="M0.00976562 28.2734C0.173099 28.4922 0.177474 28.7095 0.00976562 28.9282V28.2734Z" fill="#344054"/>
<path d="M15.1762 55.9904C15.1849 55.9554 15.1791 55.9248 15.1602 55.8942C15.3599 55.8563 15.5539 55.8431 15.7216 55.9904H15.1762Z" fill="#344054"/>
<path d="M17.0468 55.892C17.022 55.9212 17.0177 55.9547 17.0337 55.9897H16.4883C16.6545 55.8439 16.8485 55.8527 17.0468 55.892Z" fill="#003923"/>
<path d="M26.0918 55.9899C26.1545 55.8091 26.2989 55.9053 26.4112 55.8981C26.452 55.9156 26.4666 55.9345 26.4549 55.9564C26.4433 55.9797 26.4316 55.9899 26.4185 55.9899H26.0918Z" fill="#003923"/>
<path d="M26.4174 55.9903C26.4174 55.9597 26.4145 55.9291 26.4102 55.8984C26.5181 55.8984 26.6274 55.8999 26.7354 55.9014C26.7777 55.9174 26.7922 55.9364 26.7806 55.9568C26.7689 55.9801 26.7572 55.9903 26.7441 55.9903H26.4174Z" fill="#344054"/>
<path d="M28.8184 55.9915C28.9 55.853 29.0298 55.888 29.1523 55.8982C29.1829 55.9215 29.1917 55.942 29.18 55.9624C29.1684 55.9813 29.1567 55.9915 29.1465 55.9915H28.8198H28.8184Z" fill="#003923"/>
<path d="M0.00976562 26.3101C0.136641 26.3392 0.111849 26.434 0.103099 26.5215C0.0753906 26.5755 0.0447656 26.5784 0.00976562 26.5273V26.3086V26.3101Z" fill="#003923"/>
<path d="M0.100182 29.5888C0.111849 29.6778 0.132266 29.7696 0.00976562 29.8003V29.5815C0.0433073 29.529 0.0739323 29.5348 0.100182 29.5873V29.5888Z" fill="#344054"/>
<path d="M0.100182 29.5879C0.0695573 29.5879 0.0389323 29.5849 0.00976562 29.582V29.3633C0.114766 29.4085 0.119141 29.4931 0.100182 29.5879Z" fill="#344054"/>
<path d="M0.104557 26.7396C0.117682 26.8329 0.110391 26.9175 0.00976562 26.9627V26.7439C0.0389323 26.6973 0.0695573 26.6944 0.104557 26.7381V26.7396Z" fill="#003923"/>
<path d="M0.104557 26.7402C0.0739323 26.7432 0.041849 26.7446 0.00976562 26.7461V26.5273C0.0403906 26.5259 0.0710156 26.5244 0.103099 26.5215C0.103099 26.5944 0.103099 26.6673 0.103099 26.7402H0.104557Z" fill="#003923"/>
<path d="M26.7446 55.9906C26.7417 55.96 26.7387 55.9308 26.7344 55.9002C26.8292 55.8812 26.9123 55.8929 26.9619 55.9906H26.7431H26.7446Z" fill="#003923"/>
<path d="M29.1465 55.9918C29.1465 55.9611 29.1494 55.9291 29.1538 55.8984C29.2267 55.8984 29.2996 55.8984 29.3725 55.8984C29.4032 55.9218 29.4119 55.9422 29.4002 55.9626C29.3886 55.9816 29.3769 55.9903 29.3667 55.9903H29.1479L29.1465 55.9918Z" fill="#026543"/>
<path d="M29.3647 55.9903C29.3647 55.9597 29.3677 55.9291 29.372 55.8984C29.4435 55.8984 29.5164 55.8984 29.5879 55.8984C29.6199 55.9203 29.6302 55.9422 29.617 55.9611C29.6054 55.9801 29.5937 55.9903 29.582 55.9903H29.3633H29.3647Z" fill="#026543"/>
<path d="M29.5815 55.9895C29.5815 55.9589 29.5815 55.9282 29.5859 55.8976C29.6763 55.8845 29.774 55.8524 29.7988 55.9895H29.5801H29.5815Z" fill="#026543"/>
<path d="M26.8212 23.7971C26.111 23.784 25.5203 23.5711 25.0493 23.1029C22.7685 20.8338 20.4891 18.5617 18.2228 16.2765C17.5885 15.6377 17.6001 14.8852 18.2272 14.2465C19.1168 13.338 20.018 12.4382 20.9266 11.5471C21.5799 10.9069 22.3368 10.9069 22.993 11.553C24.1335 12.6744 25.271 13.8002 26.3807 14.9523C26.6899 15.2746 26.8445 15.228 27.1303 14.9377C28.9941 13.0477 30.8753 11.1752 32.7522 9.29983C33.5922 8.46129 34.2864 8.46566 35.1351 9.31004C35.9474 10.118 36.7582 10.9259 37.5632 11.7411C38.3172 12.5038 38.3274 13.2198 37.5837 13.9723C36.4841 15.0836 35.3757 16.1875 34.2674 17.2886C33.7847 17.7684 33.3107 17.8092 32.9418 17.4184C32.5991 17.0567 32.656 16.59 33.1124 16.1307C34.0866 15.1507 35.0564 14.1663 36.048 13.2052C36.3091 12.953 36.366 12.813 36.067 12.5388C35.4385 11.9613 34.8362 11.3532 34.2543 10.7275C34.0005 10.4534 33.8635 10.4913 33.6199 10.7363C31.7401 12.635 29.8457 14.5207 27.9557 16.4092C27.0778 17.2857 26.4114 17.2842 25.5305 16.4048C24.4499 15.3257 23.362 14.2538 22.2974 13.1586C22.0437 12.899 21.8978 12.8421 21.6237 13.1382C21.0301 13.7769 20.4016 14.3836 19.7774 14.9932C19.6039 15.1623 19.5076 15.2673 19.7395 15.4963C21.8701 17.6065 23.9832 19.7357 26.111 21.8502C26.5543 22.2907 26.9582 22.2688 27.4366 21.7977C28.3305 20.9184 29.2055 20.0186 30.1024 19.1421C30.5749 18.6813 31.2078 18.7659 31.4674 19.3011C31.6512 19.6802 31.5418 20.0113 31.2618 20.2927C30.3124 21.245 29.363 22.1988 28.402 23.1394C27.9543 23.5769 27.3899 23.7636 26.8168 23.7957L26.8212 23.7971Z" fill="#00F293"/>
<path fill-rule="evenodd" clip-rule="evenodd" d="M12.9771 30.6739C13.3037 30.4551 13.4656 30.1503 13.5166 29.7522C13.4831 29.3672 13.311 29.0508 12.9683 28.8204C11.8687 28.0839 10.9631 27.1564 10.2121 26.0656C9.7206 25.3524 8.89665 25.3437 8.40227 26.0495C7.63373 27.1491 6.71352 28.0795 5.6081 28.8437C4.89644 29.3351 4.89935 30.1649 5.61394 30.6578C6.71935 31.4206 7.63665 32.3539 8.40665 33.4535C8.8981 34.1549 9.72644 34.1389 10.2179 33.4258C10.9704 32.3364 11.876 31.4089 12.9771 30.6739ZM11.4389 29.7467C10.647 29.108 9.94406 28.427 9.30385 27.5957C8.68115 28.4022 7.97531 29.1036 7.14844 29.754C7.96948 30.3782 8.66365 31.087 9.3024 31.8963C9.9426 31.0753 10.6528 30.387 11.4389 29.7467Z" fill="#00F293"/>
<path fill-rule="evenodd" clip-rule="evenodd" d="M46.5744 19.2143C46.3819 18.9314 46.1048 18.768 45.711 18.7739V18.7724C45.364 18.7564 45.0883 18.9532 44.8856 19.2507C44.3388 20.0557 43.6519 20.712 42.8615 21.2778C42.2111 21.743 42.2067 22.4897 42.8542 22.9578C43.6563 23.5382 44.3358 24.2222 44.9163 25.0257C45.3756 25.6616 46.1398 25.6382 46.6006 24.9893C47.1635 24.1974 47.8402 23.5324 48.6292 22.9651C49.2752 22.5014 49.2796 21.7532 48.6321 21.2851C47.8285 20.7047 47.1315 20.0339 46.5744 19.2143ZM45.7074 23.3229C45.7228 23.3331 45.7388 23.3436 45.7548 23.3553H45.7563C45.7714 23.3426 45.7863 23.331 45.8007 23.3197C45.8308 23.2962 45.8585 23.2745 45.8802 23.2489C46.1836 22.8887 46.5117 22.5547 46.8777 22.2572C47.0366 22.127 46.9499 22.0555 46.8604 21.9818C46.8406 21.9655 46.8208 21.9491 46.8034 21.932C46.7268 21.857 46.6489 21.7834 46.5711 21.7097C46.3597 21.5097 46.1486 21.31 45.9663 21.0862C45.7811 20.8587 45.695 20.9024 45.5244 21.092C45.417 21.2109 45.2783 21.3245 45.1413 21.4367C44.8783 21.652 44.6215 21.8623 44.6042 22.0953C44.588 22.3107 44.8643 22.5472 45.1407 22.7838C45.2629 22.8884 45.3851 22.9929 45.4821 23.0957C45.5049 23.1198 45.5258 23.1454 45.5466 23.171C45.5713 23.2013 45.5959 23.2315 45.6236 23.2591C45.6479 23.2834 45.6767 23.3025 45.7074 23.3229Z" fill="#026543"/>
<path fill-rule="evenodd" clip-rule="evenodd" d="M18.9423 24.6895C19.2427 24.4839 19.4308 24.2097 19.4381 23.9122H19.4367C19.4425 23.4324 19.2398 23.1451 18.9219 22.9322C18.1446 22.4101 17.5102 21.7495 16.9677 20.9882C16.4675 20.2853 15.7121 20.2722 15.2177 20.9649C14.6635 21.7422 14.0058 22.3999 13.23 22.9541C12.5373 23.4499 12.5519 24.2053 13.2533 24.7041C14.016 25.2466 14.6621 25.8912 15.2017 26.6568C15.699 27.3612 16.45 27.3714 16.9502 26.6743C17.5058 25.8984 18.1548 25.2276 18.9423 24.6895ZM17.2919 23.7447C17.2922 23.7444 17.2924 23.7442 17.2927 23.7439V23.7454C17.2924 23.7451 17.2922 23.7449 17.2919 23.7447ZM16.987 24.078C17.0862 23.9702 17.1879 23.8598 17.2919 23.7447C17.2126 23.6686 17.1261 23.5893 17.0357 23.5064C16.8038 23.2937 16.5464 23.0577 16.3199 22.7945C16.1041 22.5437 16.0122 22.6181 15.8372 22.8179C15.7308 22.9395 15.5856 23.0622 15.4429 23.1828C15.175 23.4092 14.9161 23.628 14.9389 23.8183C14.9686 24.0679 15.2252 24.2861 15.4881 24.5096C15.6261 24.6269 15.7657 24.7457 15.8752 24.8712C16.0647 25.0885 16.1537 25.036 16.3127 24.8406C16.5219 24.5829 16.7472 24.3383 16.987 24.078Z" fill="#026543"/>
<path d="M45.7199 40.7251C45.4472 40.7251 45.1745 40.7353 44.9018 40.7222C44.4176 40.6988 44.1026 40.394 44.0866 39.9507C44.0705 39.5045 44.3593 39.1355 44.8332 39.1078C45.4487 39.0713 46.0699 39.0684 46.6839 39.1136C47.1491 39.1472 47.432 39.5424 47.3839 39.9915C47.3343 40.4582 47.0543 40.7032 46.5905 40.7236C46.3003 40.7368 46.0087 40.7265 45.7184 40.7265L45.7199 40.7251Z" fill="#003923"/>
<path d="M30.4805 40.7247C30.1903 40.7247 29.8987 40.7378 29.6085 40.7218C29.1374 40.697 28.8662 40.4199 28.8312 39.9664C28.7962 39.5012 29.066 39.1643 29.5107 39.1235C30.1597 39.0651 30.8218 39.0651 31.4693 39.1264C31.9155 39.1687 32.1722 39.5128 32.1357 39.9766C32.0993 40.4345 31.8251 40.7014 31.3526 40.7218C31.0624 40.7349 30.7707 40.7247 30.4805 40.7233V40.7247Z" fill="#003923"/>
<path fill-rule="evenodd" clip-rule="evenodd" d="M0.257615 24.5157C0.225201 24.9397 0.192742 25.3643 0.0117188 25.7632L0.0146354 25.7661V26.3115C0.0714334 26.3637 0.0711087 26.4287 0.0707818 26.4942C0.0706974 26.5111 0.0706128 26.5281 0.0715104 26.5448V26.733C0.0706128 26.7497 0.0706974 26.7667 0.0707818 26.7836C0.0711087 26.8491 0.0714334 26.9141 0.0146354 26.9663V28.2759C0.103594 28.4946 0.103594 28.7119 0.0146354 28.9307V29.3667C0.0705398 29.4178 0.0707408 29.482 0.0709433 29.5467C0.0709838 29.5596 0.0710244 29.5726 0.0715104 29.5855C0.0710243 29.5983 0.0709838 29.6113 0.0709433 29.6244C0.0707407 29.6894 0.0705382 29.7544 0.0146354 29.8042V30.3496C0.0821218 30.6767 0.0957098 31.0078 0.109304 31.3391C0.118623 31.5663 0.127945 31.7934 0.154635 32.0194C0.415677 34.255 1.02526 36.4032 1.86672 38.4827C2.06505 38.9742 2.12339 39.403 1.88568 39.8857C1.66693 40.3319 1.59984 40.819 1.59984 41.3177C1.60189 42.5734 1.6017 43.829 1.60152 45.0847C1.60132 46.5196 1.60111 47.9546 1.60422 49.3896C1.60714 50.5227 2.10151 51.0157 3.23755 51.02C4.5097 51.0241 5.78113 51.0232 7.05284 51.0223H7.053H7.05316H7.05332H7.05347H7.05363H7.05379H7.05394H7.0541H7.05426H7.05442H7.05457H7.05473H7.05489H7.05505C7.60052 51.0219 8.14606 51.0215 8.69172 51.0215C9.55991 51.0215 10.1403 51.4201 10.433 52.2173C10.4446 52.2509 10.4563 52.2859 10.4709 52.3194C11.3838 54.3407 12.8013 55.713 15.1142 55.9346C15.3184 55.9623 15.7282 55.9915 15.7282 55.9915C15.7282 55.9915 16.1944 56.0077 16.4923 55.9915C16.7226 55.979 16.8846 55.9609 17.0801 55.9346C17.0801 55.9346 18.6055 55.6575 19.2646 55.223C19.5971 55.0042 19.918 54.9561 20.2898 55.0757C20.7936 55.238 21.3089 55.3552 21.8248 55.4724C21.9436 55.4994 22.0625 55.5264 22.1813 55.554C23.0162 55.7476 23.8651 55.824 24.7138 55.9004L24.7139 55.9004L24.7142 55.9005L24.7144 55.9005L24.7146 55.9005L24.7148 55.9005L24.715 55.9006L24.7153 55.9006L24.7155 55.9006L24.7157 55.9006L24.7159 55.9007L24.7161 55.9007L24.7163 55.9007L24.7166 55.9007L24.7168 55.9007L24.717 55.9008C25.0309 55.929 25.3448 55.9573 25.658 55.9915C26.1565 55.9915 26.6581 55.9989 27.1611 56.0063H27.1614H27.1618H27.1621H27.1624H27.1628H27.1631H27.1635H27.1638H27.1641H27.1645H27.1648H27.1651H27.1655H27.1658C28.7488 56.0297 30.3456 56.0532 31.9055 55.8486C33.568 55.6313 35.194 55.255 36.7807 54.7125L36.8094 54.7027C37.0941 54.6051 37.3749 54.5088 37.6557 54.7388C39.0317 55.8652 40.6403 56.1363 42.3559 55.8996C44.8467 55.5292 46.7236 53.7821 47.2632 51.2986C47.3303 50.9909 47.4426 50.8873 47.7619 50.8902C49.1069 50.9051 50.4518 50.9021 51.7967 50.899L52.5088 50.8975C53.7192 50.8946 54.183 50.4294 54.183 49.2073C54.1859 46.0602 54.1859 42.9146 54.1815 39.769L54.1813 39.7143C54.1801 39.315 54.1788 38.911 54.1188 38.5177C54.0619 38.143 54.1203 37.8105 54.2442 37.4619C56.0205 32.4423 56.3486 27.3265 55.2446 22.1173C52.6328 9.80026 41.7346 0.612764 29.158 0.140264C24.2507 -0.0434861 19.6001 0.971514 15.2178 3.18818C13.4634 4.07776 11.8301 5.15839 10.2988 6.3936C9.96339 6.66339 9.81609 6.9813 9.94589 7.39401C10.048 7.71922 10.309 7.89276 10.6357 7.93214C10.9566 7.9712 11.1934 7.78199 11.4266 7.59568L11.4582 7.57047C15.4161 4.41901 19.9019 2.52755 24.9332 1.9413C30.4413 1.29964 35.6534 2.29568 40.5009 4.96005C50.9323 10.6928 56.1444 22.2778 53.5851 33.8948C53.5665 33.9788 53.5501 34.0637 53.5336 34.149C53.47 34.4787 53.4051 34.8152 53.2059 35.1315C52.8209 33.9925 52.4505 32.893 52.0815 31.7934C51.0898 28.8388 48.8819 27.2405 45.7786 27.2405C43.0127 27.2398 40.2466 27.24 37.4803 27.2402C33.791 27.2404 30.1015 27.2407 26.4119 27.239C23.7665 27.239 21.6315 28.2817 19.9836 30.3423C19.5099 30.9352 19.0359 31.5276 18.5621 32.12L18.5566 32.1268C17.7151 33.1788 16.8739 34.2304 16.0344 35.2832C15.8259 35.5442 15.6101 35.763 15.2469 35.8067C12.6336 36.1275 10.0188 36.4513 7.40693 36.7867C7.20969 36.8121 7.01142 36.8339 6.81302 36.8558L6.81279 36.8558C5.67639 36.981 4.53588 37.1067 3.5613 37.895L3.50079 37.7424C3.45991 37.6396 3.42461 37.5507 3.39068 37.4619C2.4588 35.0396 1.91047 32.5371 1.72672 29.9457C1.38255 25.0646 2.32609 20.449 4.52964 16.0871C5.56651 14.0338 6.88047 12.1671 8.4088 10.4492C8.85359 9.95047 8.8463 9.45318 8.42339 9.12214C8.03401 8.8188 7.59068 8.91505 7.15172 9.40943C3.45047 13.5788 1.16526 18.4103 0.317969 23.9257C0.287828 24.1204 0.272727 24.318 0.257615 24.5157ZM21.8887 51.1305C21.7604 51.9457 21.4119 52.6792 21.0021 53.3807L21.0035 53.3792C21.024 53.3939 21.0403 53.4071 21.0541 53.4183C21.0788 53.4382 21.0957 53.4518 21.1144 53.4565C26.0523 54.7413 30.9596 54.6407 35.8435 53.1546C36.3 53.0161 36.351 52.8717 36.1294 52.4736C35.9558 52.163 35.8216 51.8013 35.7866 51.4498C35.7356 50.9321 35.4658 50.8796 35.0312 50.8869C33.9412 50.9038 32.8511 50.9008 31.761 50.8979C31.3417 50.8968 30.9224 50.8957 30.5031 50.8957C30.346 50.8953 30.1887 50.896 30.0315 50.8966H30.0315H30.0314H30.0314H30.0313H30.0313H30.0313H30.0312H30.0312C29.6062 50.8984 29.1811 50.9002 28.7575 50.8811C28.2835 50.8607 28.0269 50.5617 28.0108 50.1038C27.9962 49.6692 28.231 49.3805 28.6656 49.293C28.8353 49.2593 29.0131 49.2594 29.1873 49.2594L29.2081 49.2594L30.2092 49.2585H30.2114H30.2117H30.212H30.2123H30.2127H30.213H30.2133H30.2136H30.2139H30.2143H30.2146H30.2149H30.2152H30.2155C31.8802 49.2569 33.5442 49.2553 35.2091 49.2638C35.5212 49.2653 35.6744 49.22 35.7444 48.8525C35.9514 47.7573 36.4589 46.7905 37.2494 46.0044C38.8914 44.3725 40.8631 43.7921 43.0958 44.4207C45.3256 45.0492 46.6964 46.5703 47.2608 48.8132C47.2693 48.8464 47.2762 48.8796 47.283 48.912C47.3231 49.1029 47.3577 49.2675 47.6619 49.2638C49.1887 49.2478 50.7171 49.2521 52.2439 49.2609C52.486 49.2623 52.5371 49.1705 52.5531 48.943L52.5543 48.9255C52.6494 47.5153 52.6494 47.5152 51.2333 47.5021C51.2154 47.5021 51.1973 47.5023 51.1791 47.5025L51.1401 47.5027C51.1166 47.5028 51.0931 47.5028 51.07 47.5021C50.0127 47.4671 49.2296 46.773 49.1756 45.7098C49.1231 44.6759 49.1231 43.6361 49.1756 42.6021C49.2296 41.5171 50.0185 40.8273 51.1181 40.8026C51.4812 40.7938 51.8458 40.785 52.2089 40.804C52.4743 40.8171 52.5502 40.7165 52.5531 40.4598C52.5662 39.3282 52.5166 38.2096 52.1491 37.1232C51.8869 36.3501 51.6298 35.575 51.3726 34.8L51.3721 34.7984C51.0818 33.9235 50.7916 33.0486 50.4939 32.1765C49.7735 30.0619 48.1198 28.8792 45.8812 28.8792C41.543 28.8773 37.2041 28.8779 32.865 28.8786H32.8649H32.8647H32.8646H32.8644H32.8642H32.8641H32.8639H32.8638H32.8636H32.8634H32.8633H32.8631H32.863H32.8628C30.6928 28.8789 28.5227 28.8792 26.3527 28.8792C24.2716 28.8792 22.5916 29.7076 21.2952 31.3263L20.6108 32.1799C19.5085 33.5544 18.4065 34.9286 17.3154 36.3109C16.8312 36.9234 16.2479 37.3361 15.4604 37.4338C14.6049 37.5397 13.7496 37.6468 12.8943 37.7539L12.8907 37.7543L12.8902 37.7544C10.7549 38.0217 8.61962 38.289 6.4829 38.5378C5.29727 38.6763 4.30561 39.0788 3.71061 40.1828C3.38831 40.7836 3.39998 40.8011 4.09269 40.8011C4.87851 40.8016 5.66452 40.8014 6.45066 40.8011H6.45077H6.45089H6.451H6.45112H6.45123H6.45134H6.45146H6.45157H6.45169H6.4518H6.45192H6.45203H6.45215H6.45226C7.82917 40.8007 9.20645 40.8003 10.5837 40.804C11.2808 40.8055 11.7154 41.1467 11.8 41.7242C12.08 43.6244 10.7835 45.4109 8.88186 45.758C8.3487 45.8551 7.81379 45.8411 7.27985 45.8272L7.27948 45.8272C7.1242 45.8231 6.96899 45.8191 6.81394 45.8178C6.42456 45.8148 6.12706 45.8921 5.86019 46.2013C5.46352 46.6592 4.94581 46.9582 4.40186 47.2294C4.27817 47.291 4.12865 47.3095 3.98134 47.3276C3.72047 47.3599 3.46653 47.3912 3.37519 47.6596C3.28988 47.9095 3.30995 48.1954 3.33001 48.4809C3.33875 48.6054 3.34748 48.7298 3.34748 48.8511C3.34748 48.8632 3.34797 48.8754 3.34845 48.8876C3.34943 48.9119 3.3504 48.9362 3.34748 48.9605C3.3154 49.2084 3.43936 49.2638 3.6654 49.2638C5.75665 49.258 7.8479 49.2594 9.93915 49.2638C10.1535 49.2638 10.2571 49.2142 10.295 48.9736C10.3708 48.4894 10.5327 48.0242 10.7427 47.5794C11.8291 45.2884 14.2602 43.9321 16.7598 44.2194C19.2594 44.5082 21.2879 46.35 21.8406 48.8584C21.9062 49.1617 22.0098 49.2798 22.3364 49.2696C23.1208 49.2458 23.908 49.2543 24.6939 49.2628L24.7908 49.2638C25.4412 49.2696 25.7956 49.5657 25.8 50.079C25.8044 50.604 25.4646 50.8898 24.8054 50.8957C23.9701 50.9015 23.1364 50.8986 22.3011 50.8957H22.3007H22.3004H22.3H22.2996H22.2993H22.2989H22.2985H22.2982H22.2978H22.2974H22.2971H22.2967H22.2963H22.296H22.2956L22.2529 50.8954C22.0834 50.8937 21.9264 50.8922 21.8887 51.1305ZM20.338 50.0588C20.3526 52.4169 18.4597 54.339 16.1118 54.3521C13.7712 54.3638 11.8301 52.4505 11.8126 50.1142C11.7951 47.7736 13.7085 45.8428 16.0549 45.8311C18.4218 45.8194 20.3235 47.6978 20.338 50.0588ZM41.4898 54.3506C43.845 54.3565 45.7496 52.4606 45.7584 50.1011V50.0996C45.7671 47.7371 43.8786 45.834 41.519 45.8296C39.1638 45.8252 37.2432 47.7283 37.2344 50.0719C37.2257 52.4067 39.1536 54.3448 41.4898 54.3506ZM52.5477 44.1493C52.5477 44.2853 52.5461 44.4215 52.5445 44.5577V44.5579C52.5409 44.8758 52.5372 45.194 52.5535 45.5114C52.5681 45.806 52.4616 45.8804 52.1816 45.8731C51.9378 45.8675 51.7363 45.8685 51.5699 45.8694H51.5698H51.5697H51.5696H51.5696H51.5695H51.5694H51.5693H51.5692C51.1659 45.8716 50.9683 45.8727 50.8731 45.7745C50.7817 45.6803 50.7846 45.4946 50.7902 45.1308V45.1307V45.1306V45.1305V45.1304V45.1302V45.13V45.1299V45.1297C50.7926 44.9752 50.7955 44.7887 50.7918 44.5635C50.7877 44.3059 50.7891 44.0487 50.7905 43.7914C50.7921 43.504 50.7936 43.2166 50.7875 42.9287C50.7802 42.5991 50.8823 42.4416 51.2512 42.43L51.2901 42.4286H51.2901C51.9165 42.4074 52.2308 42.3968 52.3886 42.5488C52.5477 42.7019 52.5477 43.0202 52.5477 43.6593V44.1493ZM8.85758 42.4413C8.71801 42.4402 8.57844 42.4392 8.43887 42.4392H8.44033C8.30576 42.4392 8.17119 42.4397 8.03662 42.4402C7.70014 42.4414 7.36367 42.4425 7.0272 42.4363C6.83179 42.4334 6.75449 42.4815 6.73116 42.7017C6.57804 44.1863 6.58241 44.198 8.03929 44.1907C8.06621 44.1907 8.09323 44.1909 8.1203 44.1912C8.2017 44.192 8.28351 44.1929 8.36449 44.1863C9.19429 44.1207 9.90158 43.5388 10.113 42.7819C10.1874 42.5165 10.1364 42.4246 9.85199 42.4348C9.52052 42.4461 9.18905 42.4437 8.85758 42.4413ZM5.10487 43.5886C5.10487 44.7202 4.69216 45.3677 3.75883 45.7119C3.49779 45.8082 3.33008 45.8402 3.34029 45.4494C3.36362 44.5598 3.35633 43.6688 3.3432 42.7792C3.34029 42.5284 3.3957 42.3957 3.67279 42.4365C3.73319 42.4454 3.79493 42.4429 3.85711 42.4404C3.88651 42.4392 3.916 42.438 3.94549 42.438C4.71938 42.438 5.10633 42.821 5.10633 43.5871L5.10487 43.5886ZM39.6906 37.3382C40.4353 37.3381 41.1801 37.3379 41.9248 37.3379C42.6007 37.3379 43.2764 37.3383 43.9521 37.3387H43.9523H43.9524H43.9526H43.9527H43.9529H43.9531H43.9532H43.9534C45.5298 37.3396 47.1059 37.3405 48.6827 37.3364C49.6671 37.3335 50.1337 36.6875 49.829 35.7425C49.4994 34.7275 49.1567 33.7154 48.8096 32.7062C48.3488 31.3689 47.4169 30.6442 46.0023 30.6354C42.5388 30.613 39.074 30.6215 35.6092 30.6299L35.1581 30.631C34.2904 30.6339 33.92 31.035 33.9156 31.9217C33.9083 33.3027 33.9083 34.6823 33.9156 36.0633C33.9215 36.9689 34.3021 37.3379 35.2223 37.3379C36.7117 37.3389 38.2012 37.3386 39.6906 37.3382ZM24.6167 37.3362H24.6165C23.4608 37.3344 22.3048 37.3326 21.1495 37.342C20.6478 37.3463 20.2541 37.1903 20.0222 36.7382C19.7874 36.2803 19.9056 35.8632 20.2176 35.4768C20.6059 34.9953 20.9917 34.5119 21.3774 34.0286L21.3777 34.0282L21.378 34.0278L21.3783 34.0274L21.3787 34.027L21.379 34.0267L21.3793 34.0263L21.3796 34.0259L21.3797 34.0258L21.3798 34.0256L21.3799 34.0255C21.8206 33.4733 22.2612 32.9212 22.7056 32.372C23.6433 31.2126 24.8639 30.6307 26.3572 30.6263C26.6593 30.6258 26.9613 30.625 27.2632 30.6242C28.4702 30.6212 29.6766 30.6182 30.8839 30.6263C31.7589 30.6336 32.1526 31.0259 32.1599 31.8966C32.1716 33.2776 32.1701 34.6601 32.1599 36.0411C32.1526 36.9497 31.7589 37.3318 30.8576 37.3347C29.7794 37.3366 28.7005 37.336 27.6218 37.3353H27.6216H27.6215H27.6213C27.0822 37.335 26.5432 37.3347 26.0043 37.3347L26.0028 37.3376C25.5412 37.3376 25.0794 37.3369 24.6176 37.3362H24.6175H24.6173H24.6172H24.617H24.6169H24.6167ZM16.0602 52.6021C17.4558 52.6153 18.586 51.488 18.586 50.0836C18.586 48.6982 17.4864 47.5899 16.1083 47.5811C14.7083 47.5724 13.5649 48.7011 13.5664 50.0894C13.5679 51.4471 14.701 52.589 16.0602 52.6021ZM44.0054 50.0841C44.0054 51.4841 42.8708 52.6157 41.4781 52.6012C40.119 52.588 38.9858 51.4461 38.9844 50.0884C38.9829 48.7001 40.1263 47.5728 41.5262 47.5801C42.9029 47.5874 44.004 48.7001 44.004 50.0841H44.0054ZM37.5269 35.7004H37.5271H37.5272C37.7354 35.7012 37.9436 35.702 38.1517 35.702L38.1502 35.7005C38.3536 35.7005 38.5569 35.6997 38.7603 35.6989H38.7607C39.2835 35.6969 39.8062 35.6948 40.329 35.7063C40.6061 35.7122 40.7081 35.6407 40.7023 35.3447C40.6848 34.4376 40.6848 33.5291 40.7023 32.622C40.7081 32.3245 40.5973 32.2559 40.3231 32.2574C38.8531 32.2691 37.3817 32.2705 35.9117 32.2574C35.62 32.2545 35.5427 32.3478 35.5471 32.6293C35.5646 33.5363 35.5661 34.4449 35.5471 35.352C35.5413 35.6495 35.6463 35.7136 35.919 35.7078C36.4546 35.6963 36.9909 35.6983 37.5269 35.7004ZM44.4652 35.6993H44.4651H44.4648C43.8802 35.6963 43.2954 35.6933 42.7122 35.7089C42.3928 35.7177 42.3213 35.6083 42.3286 35.3093C42.3476 34.4183 42.3505 33.5273 42.3286 32.6362C42.3199 32.3066 42.4438 32.2512 42.7369 32.2556C43.3219 32.2647 43.9068 32.2635 44.4915 32.2623H44.4916H44.4917H44.4918C44.9434 32.2614 45.3949 32.2605 45.8461 32.2644C46.6832 32.2716 47.0215 32.5225 47.2928 33.3114C47.3739 33.5481 47.4517 33.7861 47.5295 34.0243C47.6714 34.4583 47.8133 34.8925 47.9753 35.3181C48.108 35.6681 47.9884 35.7104 47.6792 35.7046C47.0874 35.6942 46.4948 35.6963 45.902 35.6984C45.6578 35.6993 45.4136 35.7002 45.1695 35.7002L45.1665 35.7016C44.9328 35.7016 44.699 35.7005 44.4652 35.6993H44.4652ZM22.1979 35.6031L22.1973 35.6038V35.6023L22.1979 35.6031ZM22.2433 35.6598C22.2334 35.6467 22.2192 35.6281 22.1979 35.6031C22.4 35.3568 22.601 35.1081 22.8024 34.8588L22.8026 34.8586L22.8033 34.8576L22.8035 34.8575L22.8036 34.8573C23.2887 34.2568 23.7766 33.6528 24.2914 33.0721C24.7391 32.5675 25.3516 32.3021 26.0327 32.289C26.8469 32.2744 27.6611 32.2714 28.4752 32.2685H28.476C29.0426 32.2664 29.6092 32.2644 30.1758 32.2584C30.4296 32.2555 30.5302 32.3328 30.5273 32.5982C30.5156 33.5242 30.5171 34.4517 30.5273 35.3792C30.5287 35.6009 30.4806 35.7059 30.2283 35.7044C28.3721 35.6963 26.5158 35.6931 24.659 35.6899H24.6558C23.8602 35.6886 23.0645 35.6872 22.2687 35.6855C22.2629 35.6855 22.257 35.6777 22.2433 35.6598ZM16.0851 49.2192C16.5692 49.2192 16.9426 49.5882 16.9484 50.0738C16.9542 50.558 16.5867 50.9488 16.1128 50.9634C15.6345 50.9794 15.1984 50.5507 15.2072 50.0724C15.2159 49.6028 15.6097 49.2192 16.0865 49.2178L16.0851 49.2192ZM41.5279 50.9634C42.0018 50.9503 42.3708 50.5594 42.3664 50.0767L42.3679 50.0753C42.3635 49.5896 41.9916 49.2178 41.5075 49.2178C41.0306 49.2178 40.6354 49.5999 40.6252 50.0694C40.615 50.5463 41.0496 50.978 41.5279 50.9634Z" fill="#026543"/>
<path d="M18.5997 50.0846C18.5997 51.489 17.4695 52.6162 16.0738 52.6031C14.7147 52.59 13.5815 51.4481 13.5801 50.0904C13.5786 48.7021 14.722 47.5733 16.122 47.5821C17.5001 47.5908 18.5997 48.6992 18.5997 50.0846Z" fill="#003923"/>
<path d="M44.004 50.0768C44.004 51.4811 42.8738 52.6084 41.4781 52.5953C40.119 52.5822 38.9858 51.4403 38.9844 50.0826C38.9829 48.6943 40.1263 47.5655 41.5263 47.5743C42.9044 47.583 44.004 48.6914 44.004 50.0768Z" fill="#003923"/>
<path d="M16.0987 49.2202C16.5829 49.2202 16.9562 49.5892 16.9621 50.0748C16.9679 50.559 16.6004 50.9498 16.1265 50.9644C15.6481 50.9804 15.2121 50.5517 15.2208 50.0733C15.2296 49.6038 15.6233 49.2202 16.1002 49.2188L16.0987 49.2202Z" fill="#FCFCFC"/>
<path d="M41.503 49.2124C41.9872 49.2124 42.3605 49.5814 42.3664 50.067C42.3722 50.5511 42.0047 50.942 41.5308 50.9566C41.0524 50.9726 40.6164 50.5439 40.6251 50.0655C40.6339 49.5959 41.0276 49.2124 41.5045 49.2109L41.503 49.2124Z" fill="#FCFCFC"/>
</svg>
