<svg width="56" height="56" viewBox="0 0 56 56" fill="none" xmlns="http://www.w3.org/2000/svg">
<path d="M55.9997 41.696C55.5266 42.9948 54.5682 43.4091 53.2325 43.3981C48.5389 43.3571 43.844 43.3817 39.1491 43.3817C38.9166 43.3817 38.6842 43.3817 38.4176 43.3817V49.2005H45.9727C45.9727 48.1108 45.9727 47.0253 45.9727 45.9398C45.9727 45.721 45.9604 45.5009 45.9905 45.2862C46.0534 44.8378 46.2954 44.548 46.7739 44.5302C47.2086 44.5138 47.5518 44.8323 47.5751 45.3245C47.6051 45.978 47.586 46.6343 47.5874 47.2892C47.5874 47.9222 47.5874 48.5538 47.5874 49.2442C48.5991 49.2442 49.5575 49.2292 50.5159 49.247C51.9993 49.2757 53.063 50.3079 53.052 51.6847C53.0424 52.9247 52.095 53.946 50.8577 54.0458C50.6225 54.0649 50.3846 54.069 50.1495 54.069C34.8288 54.069 19.5094 54.0704 4.1887 54.0663C3.80999 54.0663 3.41624 54.0636 3.05256 53.9706C1.96838 53.6958 1.26155 52.7005 1.29573 51.5712C1.32854 50.4665 2.12424 49.4671 3.23577 49.3276C4.15042 49.2128 5.08557 49.2634 6.01253 49.2442C6.24358 49.2388 6.47464 49.2442 6.73304 49.2442V21.8814C5.96057 22.394 5.26741 22.9163 4.51409 23.3319C4.02053 23.6054 3.45178 23.8419 2.89944 23.8898C1.73459 23.9937 0.731078 23.2745 0.308617 22.189C-0.116579 21.098 0.162328 19.944 1.04827 19.1675C1.2383 19.0007 1.44475 18.8476 1.6553 18.7067C3.74299 17.3136 5.83206 15.9245 7.92249 14.5368C8.07288 14.437 8.226 14.3331 8.39007 14.2579C8.79339 14.0747 9.15296 14.1581 9.39085 14.5314C9.62464 14.8991 9.56175 15.2655 9.23499 15.5636C9.10237 15.6853 8.94378 15.781 8.79202 15.8808C6.70296 17.2726 4.61389 18.6616 2.5262 20.0534C2.37444 20.1546 2.21858 20.2517 2.08459 20.372C1.68948 20.7261 1.59788 21.3208 1.85764 21.7638C2.13245 22.2314 2.71897 22.4446 3.2303 22.2355C3.44631 22.1466 3.64319 22.0085 3.84006 21.8773C11.2133 16.9732 18.5852 12.0677 25.9584 7.16221C27.0139 6.45948 27.3243 6.45948 28.3756 7.15811C35.7489 12.0622 43.1221 16.9677 50.4954 21.8718C50.6922 22.0017 50.8878 22.1425 51.1038 22.2327C51.611 22.4446 52.203 22.2341 52.4805 21.7706C52.7499 21.3194 52.6651 20.7425 52.2645 20.3788C52.1305 20.2571 51.9747 20.1601 51.8229 20.0589C43.7551 14.6886 35.6846 9.32237 27.6237 3.94249C27.2832 3.71553 27.059 3.7128 26.7186 3.94112C22.3983 6.83545 18.0657 9.71202 13.7358 12.5927C13.0043 13.0794 12.5764 13.0917 12.2551 12.6392C11.9256 12.1757 12.1116 11.7505 12.8635 11.2501C17.2686 8.31885 21.675 5.38897 26.0815 2.45909C26.9647 1.8712 27.3803 1.87256 28.2717 2.46592C36.4325 7.89366 44.5932 13.3214 52.7526 18.7505C54.0077 19.5858 54.4999 20.7808 54.1088 22.0099C53.5729 23.6929 51.667 24.4353 50.1262 23.5343C49.4372 23.131 48.7877 22.6579 48.1192 22.219C47.9729 22.122 47.8211 22.0331 47.5874 21.8882C47.5874 22.2874 47.5997 22.6073 47.5846 22.9245C47.5586 23.4659 47.2647 23.7899 46.8094 23.8036C46.3227 23.8187 46.0042 23.5001 45.9809 22.9231C45.9577 22.3421 46.0042 21.7569 45.959 21.1772C45.9426 20.9667 45.8032 20.6933 45.6323 20.5798C39.6002 16.548 33.5573 12.5325 27.5225 8.50616C27.2491 8.32432 27.0659 8.34073 26.8047 8.51436C20.7836 12.5298 14.7598 16.5398 8.72913 20.5401C8.44886 20.7261 8.36272 20.9271 8.36272 21.2511C8.37093 30.4044 8.36956 39.5577 8.36956 48.7124C8.36956 48.871 8.38597 49.0296 8.3969 49.2169H19.5737V43.3831C19.1512 43.3831 18.7246 43.3845 18.2981 43.3831C17.8428 43.3804 17.3875 43.3968 16.9336 43.3667C15.6772 43.2847 14.8528 42.4247 14.8418 41.1614C14.8254 39.1599 14.8377 37.1583 14.8377 35.1567C14.8377 32.5728 14.8364 29.9888 14.8377 27.4048C14.8377 25.8804 15.7141 24.9972 17.2371 24.9958C22.077 24.9917 26.9168 24.9944 31.7567 24.9944C31.97 24.9944 32.1833 24.9944 32.454 24.9944C32.454 24.3573 32.4321 23.779 32.4581 23.2021C32.5647 20.8765 34.8082 19.4888 36.7811 20.5374C37.8817 21.1226 38.3657 22.0946 38.3793 23.3183C38.3862 23.8583 38.3793 24.3997 38.3793 24.9931C38.6541 24.9931 38.8688 24.9931 39.0821 24.9931C43.8125 24.9931 48.543 25.0163 53.2735 24.978C54.6202 24.9671 55.5581 25.4196 55.9942 26.7362V41.696H55.9997ZM35.4481 26.6064C29.4434 26.6064 23.4387 26.6064 17.434 26.6064C16.5166 26.6064 16.4483 26.6761 16.4483 27.6099C16.4483 31.9958 16.4483 36.3817 16.4483 40.7677C16.4483 41.6974 16.5453 41.7931 17.4846 41.7931C29.4393 41.7931 41.394 41.7931 53.3487 41.7931C54.2934 41.7931 54.3891 41.6987 54.3891 40.7732C54.3891 36.3872 54.3891 32.0013 54.3891 27.6153C54.3891 26.6651 54.329 26.6077 53.3528 26.6077C47.385 26.6077 41.4159 26.6077 35.4481 26.6077V26.6064ZM21.2321 43.4214V49.2046H32.4252V43.4214H21.2321ZM32.4184 50.8616H31.7758C22.5746 50.8616 13.3748 50.8616 4.17366 50.8616C4.04651 50.8616 3.91936 50.8575 3.79221 50.863C3.25354 50.8862 2.92815 51.1665 2.90491 51.6259C2.8803 52.1085 3.20295 52.4366 3.76077 52.4872C3.88655 52.4981 4.01506 52.4927 4.14221 52.4927C13.3612 52.4927 22.5801 52.4927 31.7977 52.4927H32.4184V50.863V50.8616ZM36.7538 52.4735V43.42H34.0987V52.4735H36.7538ZM38.4149 52.4503C38.5653 52.4653 38.687 52.4899 38.81 52.4899C42.6655 52.4913 46.5223 52.4927 50.3778 52.4886C50.5569 52.4886 50.7948 52.5036 50.9014 52.4024C51.1174 52.196 51.3991 51.9144 51.3977 51.6655C51.3963 51.4126 51.1215 51.1214 50.8973 50.9245C50.777 50.8192 50.5145 50.863 50.3149 50.863C46.5319 50.8603 42.7489 50.8603 38.9659 50.863C38.7895 50.863 38.6118 50.878 38.4149 50.8862V52.4503ZM36.7674 24.9644C36.7674 24.289 36.8043 23.6396 36.7565 22.9956C36.7086 22.3435 36.1112 21.8294 35.4795 21.8062C34.8301 21.7829 34.1793 22.2286 34.1069 22.8767C34.0303 23.5657 34.0891 24.2698 34.0891 24.9644H36.7661H36.7674Z" fill="#026543"/>
<path d="M27.1237 21.8691C24.3223 21.8089 22.1034 19.5394 22.1471 16.7818C22.1909 14.0324 24.485 11.7683 27.1893 11.8011C29.9784 11.8353 32.267 14.18 32.1973 16.9295C32.1276 19.6884 29.8266 21.9279 27.1223 21.8691H27.1237ZM26.3389 16.0175V13.5566C25.0989 13.8136 24.0557 14.8718 23.8985 16.0175H26.3389ZM30.4446 16.0134C30.2422 14.8144 29.1553 13.7398 27.996 13.5703V16.0134H30.4446ZM26.3389 20.1082V17.68H23.9176C24.0256 18.7943 25.1754 19.9441 26.3389 20.1082ZM27.9905 20.115C29.1881 19.9386 30.3913 18.715 30.4008 17.7005H27.9905V20.115Z" fill="#00F293"/>
<path d="M33.4646 36.5951H30.8136C30.681 37.0572 30.5497 37.507 30.4212 37.9582C30.2804 38.4586 29.9222 38.4859 29.5175 38.3533C29.1279 38.2262 28.8216 38.032 28.9802 37.5221C29.6993 35.1992 30.4089 32.8723 31.1199 30.5467C31.2743 30.0436 31.6531 29.8945 32.1302 29.8945C32.6019 29.8945 32.997 30.0244 33.1529 30.5303C33.8706 32.8736 34.587 35.2156 35.3007 37.5604C35.4579 38.0758 35.1011 38.248 34.7224 38.3656C34.3396 38.4846 33.9937 38.4449 33.8597 37.9746C33.7312 37.5221 33.6013 37.0709 33.4646 36.5951ZM33.1255 35.3578C32.8029 34.2189 32.4939 33.1238 32.1849 32.0301L32.0796 32.0328C31.7706 33.1307 31.4617 34.2285 31.1431 35.3578H33.1255Z" fill="#003923"/>
<path d="M43.7866 31.2738V33.598C44.3226 33.598 44.8271 33.6062 45.3315 33.5953C45.7321 33.5871 45.9509 33.7607 45.9618 34.1681C45.9728 34.5796 45.7472 34.7697 45.3575 34.7752C44.8503 34.7834 44.3431 34.7779 43.7948 34.7779V37.1062C44.7942 37.1062 45.806 37.1144 46.8163 37.1021C47.2142 37.0966 47.4343 37.2621 47.4821 37.6558C47.5396 38.1412 47.3112 38.416 46.8163 38.4187C45.5435 38.4255 44.2692 38.4283 42.9964 38.4187C42.3853 38.4132 42.2417 38.2505 42.2403 37.623C42.2376 35.3302 42.2376 33.0388 42.2403 30.7461C42.2403 30.1322 42.3839 29.9627 43.0032 29.9531C44.2761 29.9353 45.5503 29.9476 46.8231 29.9462C47.2771 29.9462 47.4917 30.1759 47.4862 30.6203C47.4808 31.0673 47.2538 31.2793 46.8026 31.2765C45.8073 31.2697 44.812 31.2738 43.7853 31.2738H43.7866Z" fill="#003923"/>
<path d="M25.8942 29.8309C26.4247 29.9484 26.9674 30.0223 27.476 30.1959C27.9915 30.3723 28.1282 30.7441 27.9381 31.183C27.7549 31.6082 27.5116 31.6273 26.951 31.4605C26.4588 31.3143 25.927 31.2391 25.4143 31.2391C25.0069 31.2391 24.6419 31.4564 24.553 31.9309C24.4682 32.3861 24.728 32.6623 25.0835 32.8482C25.6618 33.1504 26.2674 33.4033 26.843 33.7123C27.9354 34.2988 28.3811 35.2477 28.1842 36.4932C28.012 37.5883 27.3188 38.2691 26.0911 38.4688C25.0889 38.6314 24.1292 38.4742 23.2924 37.8563C22.9629 37.6129 22.6977 37.3012 22.8631 36.8322C23.0559 36.2881 23.4633 36.1555 23.9159 36.5137C24.4614 36.9471 25.0288 37.2588 25.7629 37.1234C26.2086 37.0414 26.5669 36.85 26.6926 36.3975C26.8252 35.9203 26.6202 35.5279 26.2278 35.2668C25.8983 35.0467 25.5251 34.8908 25.1764 34.698C24.7335 34.452 24.259 34.2441 23.8626 33.9365C22.4872 32.8729 22.8112 30.7523 24.4409 30.1453C24.892 29.9771 25.3897 29.9348 25.8942 29.8281V29.8309Z" fill="#003923"/>
<path d="M37.8937 37.1059C38.7906 37.1059 39.6218 37.1223 40.4531 37.1004C40.9357 37.0881 41.1667 37.2795 41.1654 37.7635C41.164 38.2447 40.933 38.4375 40.4517 38.4279C39.3798 38.4088 38.308 38.4266 37.2361 38.4197C36.5415 38.4156 36.3912 38.2693 36.3898 37.5953C36.3857 35.3244 36.3857 33.0535 36.3898 30.7813C36.3898 30.0717 36.99 29.6985 37.5998 30.0649C37.7638 30.1633 37.8787 30.4777 37.8814 30.6951C37.9033 32.6024 37.8937 34.511 37.8937 36.4182C37.8937 36.6164 37.8937 36.8147 37.8937 37.1059Z" fill="#003923"/>
</svg>
