<svg width="24" height="24" viewBox="0 0 24 24" fill="none" xmlns="http://www.w3.org/2000/svg">
<path d="M17.49 9.59965L5.6 16.7696C4.9 17.1896 4 16.6896 4 15.8696V7.86965C4 4.37965 7.77 2.19965 10.8 3.93965L15.39 6.57965L17.48 7.77965C18.17 8.18965 18.18 9.18965 17.49 9.59965Z" fill="white"/>
<path d="M17.8408 15.026L17.8397 15.0267L13.79 17.3665L13.7897 17.3667L9.75142 19.6957C9.75119 19.6958 9.75095 19.696 9.75072 19.6961C8.47748 20.4246 7.0468 20.2743 6.00815 19.5412L6.00817 19.5411L6.00368 19.538C5.75615 19.3673 5.7445 18.9247 6.07394 18.7303L6.07394 18.7303L6.07691 18.7285L18.7869 11.1085L18.7871 11.1084C19.1047 10.9178 19.4857 11.1123 19.536 11.4284L19.5362 11.4293C19.7564 12.7943 19.1932 14.2495 17.8408 15.026Z" fill="white" stroke="white"/>
</svg>
